0
SECTION
2
HEADER
9
$ACADVER
1
AC1015
9
$INSUNITS
70
4
0
ENDSEC
0
SECTION
2
TABLES
0
TABLE
2
LAYER
70
5
0
LAYER
2
0
70
0
62
7
6
CONTINUOUS
0
LAYER
2
CUTLINE
70
0
62
1
6
CONTINUOUS
0
LAYER
2
DIMENSION
70
0
62
3
6
CONTINUOUS
0
LAYER
2
ANNOTATION
70
0
62
5
6
CONTINUOUS
0
LAYER
2
CENTER
70
0
62
2
6
CENTER
0
ENDTAB
0
ENDSEC
0
SECTION
2
ENTITIES
0
TEXT
8
ANNOTATION
10
0.0
20
280.0
30
0.0
40
10.0
1
SHELL TOP/BOTTOM PANEL - CUT PATTERN
0
TEXT
8
ANNOTATION
10
0.0
20
260.0
30
0.0
40
5.0
1
Material: 12mm MDF  |  Quantity: 2 (Top and Bottom)  |  Scale 1:1
0
LINE
8
CENTER
10
0.0
20
-20.0
30
0.0
11
0.0
21
240.0
31
0.0
0
LINE
8
CUTLINE
10
-210.0
20
20.0
30
0.0
11
210.0
21
20.0
31
0.0
0
LINE
8
CUTLINE
10
-210.0
20
20.0
30
0.0
11
-80.0
21
220.0
31
0.0
0
LINE
8
CUTLINE
10
210.0
20
20.0
30
0.0
11
80.0
21
220.0
31
0.0
0
ARC
8
CUTLINE
10
0.0
20
180.0
30
0.0
40
40.0
50
26.57
51
153.43
0
LINE
8
CUTLINE
10
-35.78
20
197.89
30
0.0
11
-80.0
21
220.0
31
0.0
0
LINE
8
CUTLINE
10
35.78
20
197.89
30
0.0
11
80.0
21
220.0
31
0.0
0
ARC
8
CUTLINE
10
-190.0
20
40.0
30
0.0
40
20.0
50
90.0
51
180.0
0
ARC
8
CUTLINE
10
190.0
20
40.0
30
0.0
40
20.0
50
0.0
51
90.0
0
LINE
8
CUTLINE
10
-210.0
20
40.0
30
0.0
11
-210.0
21
20.0
31
0.0
0
LINE
8
CUTLINE
10
210.0
20
40.0
30
0.0
11
210.0
21
20.0
31
0.0
0
LINE
8
CUTLINE
10
-190.0
20
20.0
30
0.0
11
190.0
21
20.0
31
0.0
0
LINE
8
DIMENSION
10
-210.0
20
0.0
30
0.0
11
210.0
21
0.0
31
0.0
0
LINE
8
DIMENSION
10
-210.0
20
0.0
30
0.0
11
-210.0
21
20.0
31
0.0
0
LINE
8
DIMENSION
10
210.0
20
0.0
30
0.0
11
210.0
21
20.0
31
0.0
0
TEXT
8
DIMENSION
10
0.0
20
-10.0
30
0.0
40
5.0
1
420
0
LINE
8
DIMENSION
10
-80.0
20
240.0
30
0.0
11
80.0
21
240.0
31
0.0
0
LINE
8
DIMENSION
10
-80.0
20
220.0
30
0.0
11
-80.0
21
240.0
31
0.0
0
LINE
8
DIMENSION
10
80.0
20
220.0
30
0.0
11
80.0
21
240.0
31
0.0
0
TEXT
8
DIMENSION
10
0.0
20
248.0
30
0.0
40
5.0
1
160
0
LINE
8
DIMENSION
10
230.0
20
20.0
30
0.0
11
230.0
21
220.0
31
0.0
0
LINE
8
DIMENSION
10
210.0
20
20.0
30
0.0
11
230.0
21
20.0
31
0.0
0
LINE
8
DIMENSION
10
80.0
20
220.0
30
0.0
11
230.0
21
220.0
31
0.0
0
TEXT
8
DIMENSION
10
240.0
20
120.0
30
0.0
40
5.0
1
220
0
TEXT
8
DIMENSION
10
-190.0
20
40.0
30
0.0
40
3.0
1
R20
0
TEXT
8
DIMENSION
10
0.0
20
195.0
30
0.0
40
3.0
1
R40
0
TEXT
8
ANNOTATION
10
0.0
20
-40.0
30
0.0
40
8.0
1
INTERNAL BAFFLE - CUT PATTERN
0
TEXT
8
ANNOTATION
10
0.0
20
-55.0
30
0.0
40
4.0
1
Material: 15mm MDF  |  Quantity: 2 (Left and Right)  |  Scale 1:1
0
LINE
8
CUTLINE
10
-7.5
20
-80.0
30
0.0
11
7.5
21
-80.0
31
0.0
0
LINE
8
CUTLINE
10
-7.5
20
-80.0
30
0.0
11
-7.5
21
-256.0
31
0.0
0
LINE
8
CUTLINE
10
7.5
20
-80.0
30
0.0
11
7.5
21
-256.0
31
0.0
0
LINE
8
CUTLINE
10
-7.5
20
-256.0
30
0.0
11
7.5
21
-256.0
31
0.0
0
CIRCLE
8
CUTLINE
10
0.0
20
-123.0
30
0.0
40
34.0
0
CIRCLE
8
CUTLINE
10
0.0
20
-198.0
30
0.0
40
34.0
0
TEXT
8
ANNOTATION
10
0.0
20
-123.0
30
0.0
40
3.0
1
DRIVER
0
TEXT
8
ANNOTATION
10
0.0
20
-130.0
30
0.0
40
2.5
1
dia.68
0
TEXT
8
ANNOTATION
10
0.0
20
-198.0
30
0.0
40
3.0
1
PASSIVE
0
TEXT
8
ANNOTATION
10
0.0
20
-205.0
30
0.0
40
2.5
1
dia.68
0
LINE
8
DIMENSION
10
-20.0
20
-80.0
30
0.0
11
-20.0
21
-256.0
31
0.0
0
LINE
8
DIMENSION
10
-7.5
20
-80.0
30
0.0
11
-20.0
21
-80.0
31
0.0
0
LINE
8
DIMENSION
10
-7.5
20
-256.0
30
0.0
11
-20.0
21
-256.0
31
0.0
0
TEXT
8
DIMENSION
10
-30.0
20
-168.0
30
0.0
40
4.0
1
176
0
LINE
8
DIMENSION
10
-7.5
20
-270.0
30
0.0
11
7.5
21
-270.0
31
0.0
0
LINE
8
DIMENSION
10
-7.5
20
-256.0
30
0.0
11
-7.5
21
-270.0
31
0.0
0
LINE
8
DIMENSION
10
7.5
20
-256.0
30
0.0
11
7.5
21
-270.0
31
0.0
0
TEXT
8
DIMENSION
10
0.0
20
-280.0
30
0.0
40
4.0
1
15
0
LINE
8
DIMENSION
10
25.0
20
-80.0
30
0.0
11
25.0
21
-123.0
31
0.0
0
LINE
8
DIMENSION
10
7.5
20
-80.0
30
0.0
11
25.0
21
-80.0
31
0.0
0
LINE
8
DIMENSION
10
7.5
20
-123.0
30
0.0
11
25.0
21
-123.0
31
0.0
0
TEXT
8
DIMENSION
10
35.0
20
-102.0
30
0.0
40
3.0
1
43
0
TEXT
8
DIMENSION
10
35.0
20
-108.0
30
0.0
40
2.5
1
(DRIVER CTR)
0
LINE
8
DIMENSION
10
25.0
20
-80.0
30
0.0
11
25.0
21
-198.0
31
0.0
0
TEXT
8
DIMENSION
10
35.0
20
-178.0
30
0.0
40
3.0
1
118
0
TEXT
8
DIMENSION
10
35.0
20
-184.0
30
0.0
40
2.5
1
(PASSIVE CTR)
0
TEXT
8
ANNOTATION
10
300.0
20
-40.0
30
0.0
40
8.0
1
SHELF PLATES - CUT PATTERN
0
TEXT
8
ANNOTATION
10
300.0
20
-55.0
30
0.0
40
4.0
1
Material: 2mm Aluminum A6063-T5  |  Scale 1:1
0
LINE
8
CUTLINE
10
250.0
20
-80.0
30
0.0
11
330.0
21
-80.0
31
0.0
0
LINE
8
CUTLINE
10
250.0
20
-80.0
30
0.0
11
250.0
21
-140.0
31
0.0
0
LINE
8
CUTLINE
10
330.0
20
-80.0
30
0.0
11
330.0
21
-140.0
31
0.0
0
LINE
8
CUTLINE
10
250.0
20
-140.0
30
0.0
11
330.0
21
-140.0
31
0.0
0
ARC
8
CUTLINE
10
254.0
20
-84.0
30
0.0
40
4.0
50
90.0
51
180.0
0
ARC
8
CUTLINE
10
326.0
20
-84.0
30
0.0
40
4.0
50
0.0
51
90.0
0
ARC
8
CUTLINE
10
254.0
20
-136.0
30
0.0
40
4.0
50
180.0
51
270.0
0
ARC
8
CUTLINE
10
326.0
20
-136.0
30
0.0
40
4.0
50
270.0
51
360.0
0
CIRCLE
8
CUTLINE
10
252.5
20
-82.5
30
0.0
40
1.75
0
CIRCLE
8
CUTLINE
10
327.5
20
-82.5
30
0.0
40
1.75
0
CIRCLE
8
CUTLINE
10
252.5
20
-137.5
30
0.0
40
1.75
0
CIRCLE
8
CUTLINE
10
327.5
20
-137.5
30
0.0
40
1.75
0
TEXT
8
ANNOTATION
10
290.0
20
-100.0
30
0.0
40
3.0
1
LEVEL 1
0
TEXT
8
ANNOTATION
10
290.0
20
-108.0
30
0.0
40
2.5
1
80 x 60mm
0
TEXT
8
ANNOTATION
10
290.0
20
-116.0
30
0.0
40
2.5
1
M3 holes @ 75mm pitch
0
TEXT
8
ANNOTATION
10
290.0
20
-124.0
30
0.0
40
2.5
1
Qty: 1
0
LINE
8
CUTLINE
10
370.0
20
-77.5
30
0.0
11
455.0
21
-77.5
31
0.0
0
LINE
8
CUTLINE
10
370.0
20
-77.5
30
0.0
11
370.0
21
-142.5
31
0.0
0
LINE
8
CUTLINE
10
455.0
20
-77.5
30
0.0
11
455.0
21
-142.5
31
0.0
0
LINE
8
CUTLINE
10
370.0
20
-142.5
30
0.0
11
455.0
21
-142.5
31
0.0
0
ARC
8
CUTLINE
10
374.0
20
-81.5
30
0.0
40
4.0
50
90.0
51
180.0
0
ARC
8
CUTLINE
10
451.0
20
-81.5
30
0.0
40
4.0
50
0.0
51
90.0
0
ARC
8
CUTLINE
10
374.0
20
-138.5
30
0.0
40
4.0
50
180.0
51
270.0
0
ARC
8
CUTLINE
10
451.0
20
-138.5
30
0.0
40
4.0
50
270.0
51
360.0
0
CIRCLE
8
CUTLINE
10
375.0
20
-80.0
30
0.0
40
1.75
0
CIRCLE
8
CUTLINE
10
450.0
20
-80.0
30
0.0
40
1.75
0
CIRCLE
8
CUTLINE
10
375.0
20
-140.0
30
0.0
40
1.75
0
CIRCLE
8
CUTLINE
10
450.0
20
-140.0
30
0.0
40
1.75
0
TEXT
8
ANNOTATION
10
412.5
20
-100.0
30
0.0
40
3.0
1
LEVEL 2
0
TEXT
8
ANNOTATION
10
412.5
20
-108.0
30
0.0
40
2.5
1
85 x 65mm
0
TEXT
8
ANNOTATION
10
412.5
20
-116.0
30
0.0
40
2.5
1
M3 holes @ 75mm pitch
0
TEXT
8
ANNOTATION
10
412.5
20
-124.0
30
0.0
40
2.5
1
Qty: 1
0
LINE
8
CUTLINE
10
495.0
20
-75.0
30
0.0
11
595.0
21
-75.0
31
0.0
0
LINE
8
CUTLINE
10
495.0
20
-75.0
30
0.0
11
495.0
21
-155.0
31
0.0
0
LINE
8
CUTLINE
10
595.0
20
-75.0
30
0.0
11
595.0
21
-155.0
31
0.0
0
LINE
8
CUTLINE
10
495.0
20
-155.0
30
0.0
11
595.0
21
-155.0
31
0.0
0
ARC
8
CUTLINE
10
499.0
20
-79.0
30
0.0
40
4.0
50
90.0
51
180.0
0
ARC
8
CUTLINE
10
591.0
20
-79.0
30
0.0
40
4.0
50
0.0
51
90.0
0
ARC
8
CUTLINE
10
499.0
20
-151.0
30
0.0
40
4.0
50
180.0
51
270.0
0
ARC
8
CUTLINE
10
591.0
20
-151.0
30
0.0
40
4.0
50
270.0
51
360.0
0
CIRCLE
8
CUTLINE
10
507.5
20
-77.5
30
0.0
40
1.75
0
CIRCLE
8
CUTLINE
10
582.5
20
-77.5
30
0.0
40
1.75
0
CIRCLE
8
CUTLINE
10
507.5
20
-152.5
30
0.0
40
1.75
0
CIRCLE
8
CUTLINE
10
582.5
20
-152.5
30
0.0
40
1.75
0
TEXT
8
ANNOTATION
10
545.0
20
-105.0
30
0.0
40
3.0
1
LEVEL 3
0
TEXT
8
ANNOTATION
10
545.0
20
-113.0
30
0.0
40
2.5
1
100 x 80mm
0
TEXT
8
ANNOTATION
10
545.0
20
-121.0
30
0.0
40
2.5
1
M3 holes @ 75mm pitch
0
TEXT
8
ANNOTATION
10
545.0
20
-129.0
30
0.0
40
2.5
1
Qty: 1
0
TEXT
8
ANNOTATION
10
0.0
20
-320.0
30
0.0
40
6.0
1
MANUFACTURING NOTES:
0
TEXT
8
ANNOTATION
10
0.0
20
-340.0
30
0.0
40
3.5
1
1. Shell panels: CNC route from 12mm MDF, sand edges smooth
0
TEXT
8
ANNOTATION
10
0.0
20
-355.0
30
0.0
40
3.5
1
2. Internal baffles: CNC route from 15mm MDF, ensure airtight fit
0
TEXT
8
ANNOTATION
10
0.0
20
-370.0
30
0.0
40
3.5
1
3. Driver/passive cutouts: dia.68mm through-holes, clean edges
0
TEXT
8
ANNOTATION
10
0.0
20
-385.0
30
0.0
40
3.5
1
4. Shelf plates: Laser cut from 2mm aluminum, deburr all edges
0
TEXT
8
ANNOTATION
10
0.0
20
-400.0
30
0.0
40
3.5
1
5. M3 holes in plates: dia.3.5mm for clearance
0
TEXT
8
ANNOTATION
10
0.0
20
-415.0
30
0.0
40
3.5
1
6. All plates to be black anodized after cutting
0
TEXT
8
ANNOTATION
10
0.0
20
-430.0
30
0.0
40
3.5
1
7. Corner radii on shell: Front R20, Back R40
0
TEXT
8
ANNOTATION
10
0.0
20
-445.0
30
0.0
40
3.5
1
8. Tolerance: +/- 0.5mm for MDF, +/- 0.2mm for aluminum
0
ENDSEC
0
EOF
