0
SECTION
2
HEADER
9
$ACADVER
1
AC1015
9
$INSUNITS
70
4
9
$DIMSCALE
40
1.0
9
$DIMTXT
40
3.0
9
$DIMASZ
40
2.5
9
$DIMEXE
40
1.5
9
$DIMEXO
40
0.625
9
$DIMDLI
40
6.0
9
$DIMGAP
40
1.0
0
ENDSEC
0
SECTION
2
TABLES
0
TABLE
2
LTYPE
70
3
0
LTYPE
2
CONTINUOUS
70
0
3
Solid line
72
65
73
0
40
0.0
0
LTYPE
2
DASHED
70
0
3
Dashed line
72
65
73
2
40
10.0
49
5.0
74
0
49
-5.0
74
0
0
LTYPE
2
CENTER
70
0
3
Center line
72
65
73
4
40
20.0
49
10.0
74
0
49
-2.5
74
0
49
2.5
74
0
49
-2.5
74
0
0
ENDTAB
0
TABLE
2
LAYER
70
10
0
LAYER
2
0
70
0
62
7
6
CONTINUOUS
0
LAYER
2
OUTLINE
70
0
62
7
6
CONTINUOUS
0
LAYER
2
HIDDEN
70
0
62
8
6
DASHED
0
LAYER
2
CENTER
70
0
62
1
6
CENTER
0
LAYER
2
DIMENSION
70
0
62
3
6
CONTINUOUS
0
LAYER
2
TEXT
70
0
62
7
6
CONTINUOUS
0
LAYER
2
HATCH
70
0
62
8
6
CONTINUOUS
0
LAYER
2
THIN
70
0
62
8
6
CONTINUOUS
0
LAYER
2
TITLE
70
0
62
7
6
CONTINUOUS
0
LAYER
2
ANNOTATION
70
0
62
5
6
CONTINUOUS
0
ENDTAB
0
TABLE
2
STYLE
70
1
0
STYLE
2
STANDARD
70
0
40
0.0
41
1.0
50
0.0
71
0
42
3.0
3
txt
4

0
ENDTAB
0
ENDSEC
0
SECTION
2
ENTITIES
0
TEXT
8
TITLE
10
0.0
20
350.0
30
0.0
40
12.0
1
PROJECT OMNI-P4 v4.0 - INTEGRATED ACOUSTIC WEDGE
0
TEXT
8
TITLE
10
0.0
20
335.0
30
0.0
40
6.0
1
Formation Wedge Style Smart Home Console
0
TEXT
8
TITLE
10
0.0
20
320.0
30
0.0
40
4.0
1
All dimensions in millimeters (mm)  |  Scale 1:2  |  Material: 12mm MDF Shell, 15mm MDF Baffles
0
LINE
8
TITLE
10
-250.0
20
310.0
30
0.0
11
700.0
21
310.0
31
0.0
0
TEXT
8
TITLE
10
-200.0
20
290.0
30
0.0
40
8.0
1
1. TOP VIEW (Plan)
0
LINE
8
CENTER
10
0.0
20
-50.0
30
0.0
11
0.0
21
280.0
31
0.0
0
LINE
8
OUTLINE
10
-210.0
20
20.0
30
0.0
11
210.0
21
20.0
31
0.0
0
LINE
8
OUTLINE
10
-210.0
20
20.0
30
0.0
11
-80.0
21
220.0
31
0.0
0
LINE
8
OUTLINE
10
210.0
20
20.0
30
0.0
11
80.0
21
220.0
31
0.0
0
ARC
8
OUTLINE
10
0.0
20
180.0
30
0.0
40
40.0
50
0.0
51
180.0
0
LINE
8
OUTLINE
10
-40.0
20
180.0
30
0.0
11
-80.0
21
220.0
31
0.0
0
LINE
8
OUTLINE
10
40.0
20
180.0
30
0.0
11
80.0
21
220.0
31
0.0
0
LINE
8
THIN
10
-198.0
20
32.0
30
0.0
11
198.0
21
32.0
31
0.0
0
LINE
8
THIN
10
-198.0
20
32.0
30
0.0
11
-74.0
21
208.0
31
0.0
0
LINE
8
THIN
10
198.0
20
32.0
30
0.0
11
74.0
21
208.0
31
0.0
0
LINE
8
HIDDEN
10
-60.0
20
32.0
30
0.0
11
-60.0
21
200.0
31
0.0
0
LINE
8
HIDDEN
10
60.0
20
32.0
30
0.0
11
60.0
21
200.0
31
0.0
0
TEXT
8
ANNOTATION
10
-130.0
20
120.0
30
0.0
40
4.0
1
LEFT SPEAKER
0
TEXT
8
ANNOTATION
10
-130.0
20
110.0
30
0.0
40
3.5
1
CHAMBER
0
TEXT
8
ANNOTATION
10
-130.0
20
100.0
30
0.0
40
3.0
1
Vol: 2.95L
0
TEXT
8
ANNOTATION
10
130.0
20
120.0
30
0.0
40
4.0
1
RIGHT SPEAKER
0
TEXT
8
ANNOTATION
10
130.0
20
110.0
30
0.0
40
3.5
1
CHAMBER
0
TEXT
8
ANNOTATION
10
130.0
20
100.0
30
0.0
40
3.0
1
Vol: 2.95L
0
TEXT
8
ANNOTATION
10
0.0
20
130.0
30
0.0
40
4.0
1
CENTER
0
TEXT
8
ANNOTATION
10
0.0
20
120.0
30
0.0
40
3.5
1
ELECTRONICS
0
TEXT
8
ANNOTATION
10
0.0
20
110.0
30
0.0
40
3.0
1
TOWER
0
CIRCLE
8
THIN
10
0.0
20
160.0
30
0.0
40
30.0
0
TEXT
8
ANNOTATION
10
0.0
20
155.0
30
0.0
40
2.5
1
XVF3800
0
TEXT
8
ANNOTATION
10
0.0
20
148.0
30
0.0
40
2.5
1
MIC MESH
0
TEXT
8
ANNOTATION
10
0.0
20
141.0
30
0.0
40
2.0
1
dia.60
0
LINE
8
DIMENSION
10
-210.0
20
0.0
30
0.0
11
210.0
21
0.0
31
0.0
0
LINE
8
DIMENSION
10
-210.0
20
0.0
30
0.0
11
-210.0
21
20.0
31
0.0
0
LINE
8
DIMENSION
10
210.0
20
0.0
30
0.0
11
210.0
21
20.0
31
0.0
0
TEXT
8
DIMENSION
10
0.0
20
-8.0
30
0.0
40
4.0
1
420
0
LINE
8
DIMENSION
10
-80.0
20
235.0
30
0.0
11
80.0
21
235.0
31
0.0
0
LINE
8
DIMENSION
10
-80.0
20
220.0
30
0.0
11
-80.0
21
235.0
31
0.0
0
LINE
8
DIMENSION
10
80.0
20
220.0
30
0.0
11
80.0
21
235.0
31
0.0
0
TEXT
8
DIMENSION
10
0.0
20
240.0
30
0.0
40
4.0
1
160
0
LINE
8
DIMENSION
10
230.0
20
20.0
30
0.0
11
230.0
21
220.0
31
0.0
0
LINE
8
DIMENSION
10
210.0
20
20.0
30
0.0
11
230.0
21
20.0
31
0.0
0
LINE
8
DIMENSION
10
80.0
20
220.0
30
0.0
11
230.0
21
220.0
31
0.0
0
TEXT
8
DIMENSION
10
238.0
20
120.0
30
0.0
40
4.0
1
220
0
LINE
8
DIMENSION
10
-60.0
20
250.0
30
0.0
11
60.0
21
250.0
31
0.0
0
LINE
8
DIMENSION
10
-60.0
20
200.0
30
0.0
11
-60.0
21
250.0
31
0.0
0
LINE
8
DIMENSION
10
60.0
20
200.0
30
0.0
11
60.0
21
250.0
31
0.0
0
TEXT
8
DIMENSION
10
0.0
20
255.0
30
0.0
40
3.5
1
120 (CENTER ZONE)
0
TEXT
8
ANNOTATION
10
-60.0
20
70.0
30
0.0
40
2.5
1
15mm MDF
0
TEXT
8
ANNOTATION
10
-60.0
20
63.0
30
0.0
40
2.5
1
BAFFLE
0
TEXT
8
ANNOTATION
10
60.0
20
70.0
30
0.0
40
2.5
1
15mm MDF
0
TEXT
8
ANNOTATION
10
60.0
20
63.0
30
0.0
40
2.5
1
BAFFLE
0
TEXT
8
ANNOTATION
10
-190.0
20
26.0
30
0.0
40
2.5
1
12mm MDF SHELL
0
TEXT
8
TITLE
10
300.0
20
290.0
30
0.0
40
8.0
1
2. FRONT VIEW (Elevation)
0
LINE
8
OUTLINE
10
300.0
20
20.0
30
0.0
11
720.0
21
20.0
31
0.0
0
LINE
8
OUTLINE
10
300.0
20
20.0
30
0.0
11
300.0
21
220.0
31
0.0
0
LINE
8
OUTLINE
10
720.0
20
20.0
30
0.0
11
720.0
21
220.0
31
0.0
0
ARC
8
OUTLINE
10
320.0
20
200.0
30
0.0
40
20.0
50
90.0
51
180.0
0
ARC
8
OUTLINE
10
700.0
20
200.0
30
0.0
40
20.0
50
0.0
51
90.0
0
LINE
8
OUTLINE
10
320.0
20
220.0
30
0.0
11
700.0
21
220.0
31
0.0
0
ARC
8
OUTLINE
10
320.0
20
40.0
30
0.0
40
20.0
50
180.0
51
270.0
0
ARC
8
OUTLINE
10
700.0
20
40.0
30
0.0
40
20.0
50
270.0
51
360.0
0
LINE
8
CENTER
10
510.0
20
10.0
30
0.0
11
510.0
21
230.0
31
0.0
0
LINE
8
THIN
10
415.0
20
80.0
30
0.0
11
605.0
21
80.0
31
0.0
0
LINE
8
THIN
10
415.0
20
80.0
30
0.0
11
415.0
21
188.0
31
0.0
0
LINE
8
THIN
10
605.0
20
80.0
30
0.0
11
605.0
21
188.0
31
0.0
0
LINE
8
THIN
10
415.0
20
188.0
30
0.0
11
605.0
21
188.0
31
0.0
0
TEXT
8
ANNOTATION
10
510.0
20
140.0
30
0.0
40
4.0
1
7" LCD DISPLAY
0
TEXT
8
ANNOTATION
10
510.0
20
130.0
30
0.0
40
3.0
1
Active: 154 x 86mm
0
TEXT
8
ANNOTATION
10
510.0
20
120.0
30
0.0
40
3.0
1
Module: 170 x 105mm
0
CIRCLE
8
THIN
10
370.0
20
155.0
30
0.0
40
34.0
0
CIRCLE
8
THIN
10
370.0
20
155.0
30
0.0
40
28.0
0
TEXT
8
ANNOTATION
10
370.0
20
155.0
30
0.0
40
2.5
1
DRIVER
0
TEXT
8
ANNOTATION
10
370.0
20
147.0
30
0.0
40
2.0
1
Peerless 2.5"
0
CIRCLE
8
THIN
10
370.0
20
80.0
30
0.0
40
34.0
0
CIRCLE
8
THIN
10
370.0
20
80.0
30
0.0
40
28.0
0
TEXT
8
ANNOTATION
10
370.0
20
80.0
30
0.0
40
2.5
1
PASSIVE
0
TEXT
8
ANNOTATION
10
370.0
20
72.0
30
0.0
40
2.0
1
Dayton PR
0
CIRCLE
8
THIN
10
650.0
20
155.0
30
0.0
40
34.0
0
CIRCLE
8
THIN
10
650.0
20
155.0
30
0.0
40
28.0
0
TEXT
8
ANNOTATION
10
650.0
20
155.0
30
0.0
40
2.5
1
DRIVER
0
TEXT
8
ANNOTATION
10
650.0
20
147.0
30
0.0
40
2.0
1
Peerless 2.5"
0
CIRCLE
8
THIN
10
650.0
20
80.0
30
0.0
40
34.0
0
CIRCLE
8
THIN
10
650.0
20
80.0
30
0.0
40
28.0
0
TEXT
8
ANNOTATION
10
650.0
20
80.0
30
0.0
40
2.5
1
PASSIVE
0
TEXT
8
ANNOTATION
10
650.0
20
72.0
30
0.0
40
2.0
1
Dayton PR
0
LINE
8
DIMENSION
10
300.0
20
0.0
30
0.0
11
720.0
21
0.0
31
0.0
0
LINE
8
DIMENSION
10
300.0
20
0.0
30
0.0
11
300.0
21
20.0
31
0.0
0
LINE
8
DIMENSION
10
720.0
20
0.0
30
0.0
11
720.0
21
20.0
31
0.0
0
TEXT
8
DIMENSION
10
510.0
20
-8.0
30
0.0
40
4.0
1
420
0
LINE
8
DIMENSION
10
740.0
20
20.0
30
0.0
11
740.0
21
220.0
31
0.0
0
LINE
8
DIMENSION
10
720.0
20
20.0
30
0.0
11
740.0
21
20.0
31
0.0
0
LINE
8
DIMENSION
10
720.0
20
220.0
30
0.0
11
740.0
21
220.0
31
0.0
0
TEXT
8
DIMENSION
10
748.0
20
120.0
30
0.0
40
4.0
1
200
0
LINE
8
DIMENSION
10
760.0
20
80.0
30
0.0
11
760.0
21
188.0
31
0.0
0
LINE
8
DIMENSION
10
605.0
20
80.0
30
0.0
11
760.0
21
80.0
31
0.0
0
LINE
8
DIMENSION
10
605.0
20
188.0
30
0.0
11
760.0
21
188.0
31
0.0
0
TEXT
8
DIMENSION
10
768.0
20
134.0
30
0.0
40
3.0
1
108
0
TEXT
8
DIMENSION
10
768.0
20
126.0
30
0.0
40
2.5
1
(LCD HEIGHT)
0
LINE
8
DIMENSION
10
280.0
20
155.0
30
0.0
11
300.0
21
155.0
31
0.0
0
TEXT
8
DIMENSION
10
265.0
20
155.0
30
0.0
40
3.0
1
Z=135
0
TEXT
8
DIMENSION
10
265.0
20
148.0
30
0.0
40
2.5
1
DRIVER
0
LINE
8
DIMENSION
10
280.0
20
80.0
30
0.0
11
300.0
21
80.0
31
0.0
0
TEXT
8
DIMENSION
10
265.0
20
80.0
30
0.0
40
3.0
1
Z=60
0
TEXT
8
DIMENSION
10
265.0
20
73.0
30
0.0
40
2.5
1
PASSIVE
0
LINE
8
DIMENSION
10
280.0
20
134.0
30
0.0
11
300.0
21
134.0
31
0.0
0
TEXT
8
DIMENSION
10
265.0
20
134.0
30
0.0
40
3.0
1
Z=130
0
TEXT
8
DIMENSION
10
265.0
20
127.0
30
0.0
40
2.5
1
LCD CTR
0
TEXT
8
TITLE
10
-200.0
20
-80.0
30
0.0
40
8.0
1
3. SIDE VIEW (Right Side)
0
LINE
8
OUTLINE
10
-200.0
20
-300.0
30
0.0
11
-200.0
21
-100.0
31
0.0
0
LINE
8
OUTLINE
10
20.0
20
-300.0
30
0.0
11
20.0
21
-100.0
31
0.0
0
LINE
8
OUTLINE
10
-200.0
20
-100.0
30
0.0
11
20.0
21
-100.0
31
0.0
0
LINE
8
OUTLINE
10
-200.0
20
-300.0
30
0.0
11
20.0
21
-300.0
31
0.0
0
ARC
8
OUTLINE
10
-180.0
20
-120.0
30
0.0
40
20.0
50
90.0
51
180.0
0
ARC
8
OUTLINE
10
0.0
20
-120.0
30
0.0
40
20.0
50
0.0
51
90.0
0
ARC
8
OUTLINE
10
-180.0
20
-280.0
30
0.0
40
20.0
50
180.0
51
270.0
0
ARC
8
OUTLINE
10
0.0
20
-280.0
30
0.0
40
20.0
50
270.0
51
360.0
0
LINE
8
CENTER
10
-90.0
20
-310.0
30
0.0
11
-90.0
21
-90.0
31
0.0
0
LINE
8
THIN
10
-188.0
20
-288.0
30
0.0
11
8.0
21
-288.0
31
0.0
0
LINE
8
THIN
10
-188.0
20
-112.0
30
0.0
11
8.0
21
-112.0
31
0.0
0
LINE
8
THIN
10
-188.0
20
-288.0
30
0.0
11
-188.0
21
-112.0
31
0.0
0
LINE
8
THIN
10
8.0
20
-288.0
30
0.0
11
8.0
21
-112.0
31
0.0
0
LINE
8
HIDDEN
10
-188.0
20
-200.0
30
0.0
11
8.0
21
-200.0
31
0.0
0
LINE
8
HIDDEN
10
-60.0
20
-288.0
30
0.0
11
-60.0
21
-112.0
31
0.0
0
LINE
8
HIDDEN
10
-120.0
20
-288.0
30
0.0
11
-120.0
21
-112.0
31
0.0
0
TEXT
8
ANNOTATION
10
-155.0
20
-200.0
30
0.0
40
3.0
1
FRONT
0
TEXT
8
ANNOTATION
10
-30.0
20
-200.0
30
0.0
40
3.0
1
BACK
0
LINE
8
THIN
10
-185.0
20
-220.0
30
0.0
11
-185.0
21
-180.0
31
0.0
0
LINE
8
THIN
10
-175.0
20
-220.0
30
0.0
11
-175.0
21
-180.0
31
0.0
0
LINE
8
THIN
10
-185.0
20
-180.0
30
0.0
11
-175.0
21
-180.0
31
0.0
0
TEXT
8
ANNOTATION
10
-180.0
20
-225.0
30
0.0
40
2.5
1
LCD
0
TEXT
8
ANNOTATION
10
-90.0
20
-250.0
30
0.0
40
3.0
1
ELECTRONICS
0
TEXT
8
ANNOTATION
10
-90.0
20
-260.0
30
0.0
40
3.0
1
TOWER
0
LINE
8
DIMENSION
10
-200.0
20
-320.0
30
0.0
11
20.0
21
-320.0
31
0.0
0
LINE
8
DIMENSION
10
-200.0
20
-300.0
30
0.0
11
-200.0
21
-320.0
31
0.0
0
LINE
8
DIMENSION
10
20.0
20
-300.0
30
0.0
11
20.0
21
-320.0
31
0.0
0
TEXT
8
DIMENSION
10
-90.0
20
-328.0
30
0.0
40
4.0
1
220 (DEPTH)
0
LINE
8
DIMENSION
10
40.0
20
-300.0
30
0.0
11
40.0
21
-100.0
31
0.0
0
LINE
8
DIMENSION
10
20.0
20
-300.0
30
0.0
11
40.0
21
-300.0
31
0.0
0
LINE
8
DIMENSION
10
20.0
20
-100.0
30
0.0
11
40.0
21
-100.0
31
0.0
0
TEXT
8
DIMENSION
10
48.0
20
-200.0
30
0.0
40
4.0
1
200
0
TEXT
8
TITLE
10
300.0
20
-80.0
30
0.0
40
8.0
1
4. HORIZONTAL SECTION (at Z=100mm)
0
LINE
8
OUTLINE
10
300.0
20
-280.0
30
0.0
11
720.0
21
-280.0
31
0.0
0
LINE
8
OUTLINE
10
300.0
20
-280.0
30
0.0
11
430.0
21
-80.0
31
0.0
0
LINE
8
OUTLINE
10
720.0
20
-280.0
30
0.0
11
590.0
21
-80.0
31
0.0
0
ARC
8
OUTLINE
10
510.0
20
-120.0
30
0.0
40
40.0
50
0.0
51
180.0
0
LINE
8
OUTLINE
10
470.0
20
-120.0
30
0.0
11
430.0
21
-80.0
31
0.0
0
LINE
8
OUTLINE
10
550.0
20
-120.0
30
0.0
11
590.0
21
-80.0
31
0.0
0
LINE
8
THIN
10
312.0
20
-268.0
30
0.0
11
708.0
21
-268.0
31
0.0
0
LINE
8
THIN
10
312.0
20
-268.0
30
0.0
11
434.0
21
-92.0
31
0.0
0
LINE
8
THIN
10
708.0
20
-268.0
30
0.0
11
586.0
21
-92.0
31
0.0
0
LINE
8
HIDDEN
10
450.0
20
-268.0
30
0.0
11
450.0
21
-100.0
31
0.0
0
LINE
8
HIDDEN
10
570.0
20
-268.0
30
0.0
11
570.0
21
-100.0
31
0.0
0
LINE
8
HATCH
10
312.0
20
-268.0
30
0.0
11
312.0
21
-280.0
31
0.0
0
LINE
8
HATCH
10
320.0
20
-268.0
30
0.0
11
320.0
21
-280.0
31
0.0
0
LINE
8
HATCH
10
328.0
20
-268.0
30
0.0
11
328.0
21
-280.0
31
0.0
0
LINE
8
HATCH
10
336.0
20
-268.0
30
0.0
11
336.0
21
-280.0
31
0.0
0
LINE
8
HATCH
10
344.0
20
-268.0
30
0.0
11
344.0
21
-280.0
31
0.0
0
LINE
8
HATCH
10
352.0
20
-268.0
30
0.0
11
352.0
21
-280.0
31
0.0
0
LINE
8
HATCH
10
360.0
20
-268.0
30
0.0
11
360.0
21
-280.0
31
0.0
0
LINE
8
HATCH
10
368.0
20
-268.0
30
0.0
11
368.0
21
-280.0
31
0.0
0
LINE
8
HATCH
10
376.0
20
-268.0
30
0.0
11
376.0
21
-280.0
31
0.0
0
LINE
8
HATCH
10
384.0
20
-268.0
30
0.0
11
384.0
21
-280.0
31
0.0
0
LINE
8
HATCH
10
392.0
20
-268.0
30
0.0
11
392.0
21
-280.0
31
0.0
0
LINE
8
HATCH
10
400.0
20
-268.0
30
0.0
11
400.0
21
-280.0
31
0.0
0
TEXT
8
ANNOTATION
10
370.0
20
-200.0
30
0.0
40
4.0
1
LEFT
0
TEXT
8
ANNOTATION
10
370.0
20
-210.0
30
0.0
40
3.5
1
SPEAKER
0
TEXT
8
ANNOTATION
10
370.0
20
-220.0
30
0.0
40
3.0
1
CHAMBER
0
TEXT
8
ANNOTATION
10
650.0
20
-200.0
30
0.0
40
4.0
1
RIGHT
0
TEXT
8
ANNOTATION
10
650.0
20
-210.0
30
0.0
40
3.5
1
SPEAKER
0
TEXT
8
ANNOTATION
10
650.0
20
-220.0
30
0.0
40
3.0
1
CHAMBER
0
TEXT
8
ANNOTATION
10
510.0
20
-180.0
30
0.0
40
4.0
1
CENTER
0
TEXT
8
ANNOTATION
10
510.0
20
-190.0
30
0.0
40
3.5
1
TOWER
0
TEXT
8
ANNOTATION
10
510.0
20
-200.0
30
0.0
40
3.0
1
ZONE
0
TEXT
8
ANNOTATION
10
450.0
20
-240.0
30
0.0
40
2.5
1
15mm
0
TEXT
8
ANNOTATION
10
450.0
20
-248.0
30
0.0
40
2.5
1
BAFFLE
0
TEXT
8
ANNOTATION
10
570.0
20
-240.0
30
0.0
40
2.5
1
15mm
0
TEXT
8
ANNOTATION
10
570.0
20
-248.0
30
0.0
40
2.5
1
BAFFLE
0
TEXT
8
ANNOTATION
10
350.0
20
-274.0
30
0.0
40
2.5
1
12mm MDF SHELL (HATCHED)
0
LINE
8
DIMENSION
10
300.0
20
-300.0
30
0.0
11
720.0
21
-300.0
31
0.0
0
LINE
8
DIMENSION
10
300.0
20
-280.0
30
0.0
11
300.0
21
-300.0
31
0.0
0
LINE
8
DIMENSION
10
720.0
20
-280.0
30
0.0
11
720.0
21
-300.0
31
0.0
0
TEXT
8
DIMENSION
10
510.0
20
-308.0
30
0.0
40
4.0
1
420 (FRONT WIDTH)
0
LINE
8
DIMENSION
10
430.0
20
-60.0
30
0.0
11
590.0
21
-60.0
31
0.0
0
LINE
8
DIMENSION
10
430.0
20
-80.0
30
0.0
11
430.0
21
-60.0
31
0.0
0
LINE
8
DIMENSION
10
590.0
20
-80.0
30
0.0
11
590.0
21
-60.0
31
0.0
0
TEXT
8
DIMENSION
10
510.0
20
-52.0
30
0.0
40
4.0
1
160 (BACK WIDTH)
0
LINE
8
DIMENSION
10
450.0
20
-320.0
30
0.0
11
570.0
21
-320.0
31
0.0
0
LINE
8
DIMENSION
10
450.0
20
-268.0
30
0.0
11
450.0
21
-320.0
31
0.0
0
LINE
8
DIMENSION
10
570.0
20
-268.0
30
0.0
11
570.0
21
-320.0
31
0.0
0
TEXT
8
DIMENSION
10
510.0
20
-328.0
30
0.0
40
3.5
1
120 (CENTER ZONE WIDTH)
0
TEXT
8
TITLE
10
-200.0
20
-380.0
30
0.0
40
8.0
1
5. ELECTRONICS TOWER DETAIL
0
LINE
8
OUTLINE
10
-150.0
20
-580.0
30
0.0
11
-30.0
21
-580.0
31
0.0
0
LINE
8
OUTLINE
10
-150.0
20
-580.0
30
0.0
11
-150.0
21
-420.0
31
0.0
0
LINE
8
OUTLINE
10
-30.0
20
-580.0
30
0.0
11
-30.0
21
-420.0
31
0.0
0
LINE
8
THIN
10
-140.0
20
-560.0
30
0.0
11
-40.0
21
-560.0
31
0.0
0
LINE
8
THIN
10
-145.0
20
-515.0
30
0.0
11
-35.0
21
-515.0
31
0.0
0
LINE
8
THIN
10
-150.0
20
-475.0
30
0.0
11
-30.0
21
-475.0
31
0.0
0
LINE
8
THIN
10
-140.0
20
-560.0
30
0.0
11
-140.0
21
-515.0
31
0.0
0
LINE
8
THIN
10
-40.0
20
-560.0
30
0.0
11
-40.0
21
-515.0
31
0.0
0
LINE
8
THIN
10
-145.0
20
-515.0
30
0.0
11
-145.0
21
-475.0
31
0.0
0
LINE
8
THIN
10
-35.0
20
-515.0
30
0.0
11
-35.0
21
-475.0
31
0.0
0
LINE
8
THIN
10
-150.0
20
-475.0
30
0.0
11
-150.0
21
-420.0
31
0.0
0
LINE
8
THIN
10
-30.0
20
-475.0
30
0.0
11
-30.0
21
-420.0
31
0.0
0
TEXT
8
ANNOTATION
10
-90.0
20
-540.0
30
0.0
40
3.0
1
LEVEL 1
0
TEXT
8
ANNOTATION
10
-90.0
20
-550.0
30
0.0
40
2.5
1
Power + Sensors
0
TEXT
8
ANNOTATION
10
-90.0
20
-498.0
30
0.0
40
3.0
1
LEVEL 2
0
TEXT
8
ANNOTATION
10
-90.0
20
-508.0
30
0.0
40
2.5
1
DAC + Amplifier
0
TEXT
8
ANNOTATION
10
-90.0
20
-450.0
30
0.0
40
3.0
1
LEVEL 3
0
TEXT
8
ANNOTATION
10
-90.0
20
-460.0
30
0.0
40
2.5
1
ESP32-P4
0
LINE
8
DIMENSION
10
-160.0
20
-580.0
30
0.0
11
-160.0
21
-560.0
31
0.0
0
TEXT
8
DIMENSION
10
-175.0
20
-570.0
30
0.0
40
2.5
1
Z=20
0
LINE
8
DIMENSION
10
-160.0
20
-515.0
30
0.0
11
-160.0
21
-515.0
31
0.0
0
TEXT
8
DIMENSION
10
-175.0
20
-515.0
30
0.0
40
2.5
1
Z=65
0
LINE
8
DIMENSION
10
-160.0
20
-475.0
30
0.0
11
-160.0
21
-475.0
31
0.0
0
TEXT
8
DIMENSION
10
-175.0
20
-475.0
30
0.0
40
2.5
1
Z=105
0
LINE
8
DIMENSION
10
-20.0
20
-560.0
30
0.0
11
-20.0
21
-515.0
31
0.0
0
LINE
8
DIMENSION
10
-30.0
20
-560.0
30
0.0
11
-20.0
21
-560.0
31
0.0
0
LINE
8
DIMENSION
10
-30.0
20
-515.0
30
0.0
11
-20.0
21
-515.0
31
0.0
0
TEXT
8
DIMENSION
10
-10.0
20
-538.0
30
0.0
40
2.5
1
43
0
LINE
8
DIMENSION
10
-20.0
20
-515.0
30
0.0
11
-20.0
21
-475.0
31
0.0
0
TEXT
8
DIMENSION
10
-10.0
20
-495.0
30
0.0
40
2.5
1
38
0
LINE
8
DIMENSION
10
-20.0
20
-475.0
30
0.0
11
-20.0
21
-420.0
31
0.0
0
TEXT
8
DIMENSION
10
-5.0
20
-448.0
30
0.0
40
2.5
1
25
0
TEXT
8
DIMENSION
10
-5.0
20
-455.0
30
0.0
40
2.0
1
(to LCD)
0
TEXT
8
ANNOTATION
10
-90.0
20
-430.0
30
0.0
40
3.0
1
LCD MOUNT
0
TEXT
8
TITLE
10
100.0
20
-380.0
30
0.0
40
8.0
1
6. SPEAKER DRIVER DETAIL
0
CIRCLE
8
OUTLINE
10
200.0
20
-480.0
30
0.0
40
38.0
0
CIRCLE
8
THIN
10
200.0
20
-480.0
30
0.0
40
34.0
0
CIRCLE
8
THIN
10
200.0
20
-480.0
30
0.0
40
28.0
0
CIRCLE
8
THIN
10
200.0
20
-480.0
30
0.0
40
8.0
0
TEXT
8
ANNOTATION
10
200.0
20
-480.0
30
0.0
40
3.0
1
PEERLESS
0
TEXT
8
ANNOTATION
10
200.0
20
-488.0
30
0.0
40
2.5
1
2.5" Full Range
0
LINE
8
DIMENSION
10
162.0
20
-530.0
30
0.0
11
238.0
21
-530.0
31
0.0
0
LINE
8
DIMENSION
10
162.0
20
-518.0
30
0.0
11
162.0
21
-530.0
31
0.0
0
LINE
8
DIMENSION
10
238.0
20
-518.0
30
0.0
11
238.0
21
-530.0
31
0.0
0
TEXT
8
DIMENSION
10
200.0
20
-538.0
30
0.0
40
3.0
1
dia.76 (FLANGE)
0
LINE
8
DIMENSION
10
166.0
20
-550.0
30
0.0
11
234.0
21
-550.0
31
0.0
0
LINE
8
DIMENSION
10
166.0
20
-442.0
30
0.0
11
166.0
21
-550.0
31
0.0
0
LINE
8
DIMENSION
10
234.0
20
-442.0
30
0.0
11
234.0
21
-550.0
31
0.0
0
TEXT
8
DIMENSION
10
200.0
20
-558.0
30
0.0
40
3.0
1
dia.68 (CUTOUT)
0
CIRCLE
8
OUTLINE
10
320.0
20
-480.0
30
0.0
40
38.0
0
CIRCLE
8
THIN
10
320.0
20
-480.0
30
0.0
40
34.0
0
CIRCLE
8
THIN
10
320.0
20
-480.0
30
0.0
40
30.0
0
TEXT
8
ANNOTATION
10
320.0
20
-480.0
30
0.0
40
3.0
1
DAYTON
0
TEXT
8
ANNOTATION
10
320.0
20
-488.0
30
0.0
40
2.5
1
Passive Radiator
0
LINE
8
DIMENSION
10
282.0
20
-530.0
30
0.0
11
358.0
21
-530.0
31
0.0
0
LINE
8
DIMENSION
10
282.0
20
-518.0
30
0.0
11
282.0
21
-530.0
31
0.0
0
LINE
8
DIMENSION
10
358.0
20
-518.0
30
0.0
11
358.0
21
-530.0
31
0.0
0
TEXT
8
DIMENSION
10
320.0
20
-538.0
30
0.0
40
3.0
1
dia.76 (FLANGE)
0
TEXT
8
DIMENSION
10
320.0
20
-558.0
30
0.0
40
3.0
1
dia.68 (CUTOUT)
0
TEXT
8
TITLE
10
450.0
20
-380.0
30
0.0
40
8.0
1
7. SPECIFICATIONS TABLE
0
LINE
8
OUTLINE
10
450.0
20
-580.0
30
0.0
11
720.0
21
-580.0
31
0.0
0
LINE
8
OUTLINE
10
450.0
20
-400.0
30
0.0
11
720.0
21
-400.0
31
0.0
0
LINE
8
OUTLINE
10
450.0
20
-580.0
30
0.0
11
450.0
21
-400.0
31
0.0
0
LINE
8
OUTLINE
10
720.0
20
-580.0
30
0.0
11
720.0
21
-400.0
31
0.0
0
LINE
8
THIN
10
450.0
20
-420.0
30
0.0
11
720.0
21
-420.0
31
0.0
0
LINE
8
THIN
10
560.0
20
-580.0
30
0.0
11
560.0
21
-400.0
31
0.0
0
TEXT
8
TEXT
10
505.0
20
-412.0
30
0.0
40
3.0
1
PARAMETER
0
TEXT
8
TEXT
10
640.0
20
-412.0
30
0.0
40
3.0
1
VALUE
0
TEXT
8
TEXT
10
460.0
20
-432.0
30
0.0
40
2.5
1
Front Width
0
TEXT
8
TEXT
10
570.0
20
-432.0
30
0.0
40
2.5
1
420 mm
0
TEXT
8
TEXT
10
460.0
20
-447.0
30
0.0
40
2.5
1
Back Width
0
TEXT
8
TEXT
10
570.0
20
-447.0
30
0.0
40
2.5
1
160 mm
0
TEXT
8
TEXT
10
460.0
20
-462.0
30
0.0
40
2.5
1
Depth
0
TEXT
8
TEXT
10
570.0
20
-462.0
30
0.0
40
2.5
1
220 mm
0
TEXT
8
TEXT
10
460.0
20
-477.0
30
0.0
40
2.5
1
Height
0
TEXT
8
TEXT
10
570.0
20
-477.0
30
0.0
40
2.5
1
200 mm
0
TEXT
8
TEXT
10
460.0
20
-492.0
30
0.0
40
2.5
1
Shell Thickness
0
TEXT
8
TEXT
10
570.0
20
-492.0
30
0.0
40
2.5
1
12 mm MDF
0
TEXT
8
TEXT
10
460.0
20
-507.0
30
0.0
40
2.5
1
Baffle Thickness
0
TEXT
8
TEXT
10
570.0
20
-507.0
30
0.0
40
2.5
1
15 mm MDF
0
TEXT
8
TEXT
10
460.0
20
-522.0
30
0.0
40
2.5
1
Speaker Volume
0
TEXT
8
TEXT
10
570.0
20
-522.0
30
0.0
40
2.5
1
2.95 L per channel
0
TEXT
8
TEXT
10
460.0
20
-537.0
30
0.0
40
2.5
1
Driver Cutout
0
TEXT
8
TEXT
10
570.0
20
-537.0
30
0.0
40
2.5
1
dia.68 mm
0
TEXT
8
TEXT
10
460.0
20
-552.0
30
0.0
40
2.5
1
LCD Module
0
TEXT
8
TEXT
10
570.0
20
-552.0
30
0.0
40
2.5
1
170 x 105 mm
0
TEXT
8
TEXT
10
460.0
20
-567.0
30
0.0
40
2.5
1
Mic Mesh
0
TEXT
8
TEXT
10
570.0
20
-567.0
30
0.0
40
2.5
1
dia.60 mm
0
TEXT
8
TITLE
10
-200.0
20
-620.0
30
0.0
40
6.0
1
NOTES:
0
TEXT
8
TEXT
10
-200.0
20
-640.0
30
0.0
40
3.0
1
1. All dimensions in millimeters unless otherwise specified
0
TEXT
8
TEXT
10
-200.0
20
-655.0
30
0.0
40
3.0
1
2. Material: 12mm MDF for outer shell, 15mm MDF for internal baffles
0
TEXT
8
TEXT
10
-200.0
20
-670.0
30
0.0
40
3.0
1
3. Corner radii: Front=20mm, Back=40mm, Top/Bottom edges=20mm
0
TEXT
8
TEXT
10
-200.0
20
-685.0
30
0.0
40
3.0
1
4. Internal acoustic chambers are sealed (airtight joints required)
0
TEXT
8
TEXT
10
-200.0
20
-700.0
30
0.0
40
3.0
1
5. Recommended finish: Dark walnut veneer or matte black paint
0
TEXT
8
TEXT
10
-200.0
20
-715.0
30
0.0
40
3.0
1
6. Speaker drivers mount on internal baffles facing front
0
TEXT
8
TEXT
10
-200.0
20
-730.0
30
0.0
40
3.0
1
7. Electronics tower uses M3 aluminum hex standoffs (75mm pitch)
0
TEXT
8
TEXT
10
-200.0
20
-745.0
30
0.0
40
3.0
1
8. Fabric grille covers entire front face except LCD window
0
TEXT
8
TITLE
10
300.0
20
-620.0
30
0.0
40
6.0
1
REVISION HISTORY:
0
TEXT
8
TEXT
10
300.0
20
-640.0
30
0.0
40
3.0
1
v4.0 - Complete redesign: Integrated acoustic chambers
0
TEXT
8
TEXT
10
300.0
20
-655.0
30
0.0
40
3.0
1
     - Back width: 30mm -> 160mm (critical fix)
0
TEXT
8
TEXT
10
300.0
20
-670.0
30
0.0
40
3.0
1
     - No separate speaker boxes, enclosure IS the speaker
0
TEXT
8
TEXT
10
300.0
20
-685.0
30
0.0
40
3.0
1
     - Internal MDF baffles divide 3 chambers (L/Center/R)
0
LINE
8
TITLE
10
-250.0
20
-760.0
30
0.0
11
750.0
21
-760.0
31
0.0
0
TEXT
8
TITLE
10
-200.0
20
-780.0
30
0.0
40
4.0
1
PROJECT: OMNI-P4 SMART HOME CONSOLE
0
TEXT
8
TITLE
10
200.0
20
-780.0
30
0.0
40
4.0
1
DRAWING: MECHANICAL ASSEMBLY
0
TEXT
8
TITLE
10
550.0
20
-780.0
30
0.0
40
4.0
1
SCALE: 1:2 (VIEWS 1-4)
0
TEXT
8
TITLE
10
-200.0
20
-795.0
30
0.0
40
3.0
1
DESIGN: Formation Wedge Style
0
TEXT
8
TITLE
10
200.0
20
-795.0
30
0.0
40
3.0
1
VERSION: 4.0
0
TEXT
8
TITLE
10
550.0
20
-795.0
30
0.0
40
3.0
1
DATE: 2025-01
0
ENDSEC
0
EOF
