999
DXF created by Omni-P4 Project
0
SECTION
2
HEADER
9
$ACADVER
1
AC1009
9
$INSBASE
10
0.0
20
0.0
30
0.0
9
$EXTMIN
10
-300.0
20
-400.0
30
0.0
9
$EXTMAX
10
800.0
20
500.0
30
0.0
0
ENDSEC
0
SECTION
2
TABLES
0
TABLE
2
VPORT
70
0
0
ENDTAB
0
TABLE
2
LTYPE
70
1
0
LTYPE
2
CONTINUOUS
70
0
3
Solid line
72
65
73
0
40
0.0
0
ENDTAB
0
TABLE
2
LAYER
70
2
0
LAYER
2
0
70
0
62
7
6
CONTINUOUS
0
LAYER
2
OUTLINE
70
0
62
7
6
CONTINUOUS
0
ENDTAB
0
TABLE
2
STYLE
70
0
0
ENDTAB
0
TABLE
2
VIEW
70
0
0
ENDTAB
0
TABLE
2
UCS
70
0
0
ENDTAB
0
TABLE
2
APPID
70
1
0
APPID
2
ACAD
70
0
0
ENDTAB
0
TABLE
2
DIMSTYLE
70
0
0
ENDTAB
0
ENDSEC
0
SECTION
2
BLOCKS
0
ENDSEC
0
SECTION
2
ENTITIES
0
TEXT
8
0
10
-200.0
20
450.0
30
0.0
40
15.0
1
OMNI-P4 v4.0 ENGINEERING DRAWING
0
TEXT
8
0
10
-200.0
20
420.0
30
0.0
40
8.0
1
Integrated Acoustic Wedge - All dimensions in mm
0
TEXT
8
0
10
-200.0
20
380.0
30
0.0
40
10.0
1
=== 1. TOP VIEW (PLAN) ===
0
LINE
8
OUTLINE
10
-210.0
20
100.0
30
0.0
11
210.0
21
100.0
31
0.0
0
LINE
8
OUTLINE
10
-210.0
20
100.0
30
0.0
11
-80.0
21
320.0
31
0.0
0
LINE
8
OUTLINE
10
210.0
20
100.0
30
0.0
11
80.0
21
320.0
31
0.0
0
LINE
8
OUTLINE
10
-80.0
20
320.0
30
0.0
11
80.0
21
320.0
31
0.0
0
LINE
8
OUTLINE
10
-60.0
20
112.0
30
0.0
11
-60.0
21
300.0
31
0.0
0
LINE
8
OUTLINE
10
60.0
20
112.0
30
0.0
11
60.0
21
300.0
31
0.0
0
CIRCLE
8
OUTLINE
10
0.0
20
250.0
30
0.0
40
30.0
0
LINE
8
0
10
-210.0
20
80.0
30
0.0
11
210.0
21
80.0
31
0.0
0
LINE
8
0
10
-210.0
20
80.0
30
0.0
11
-210.0
21
100.0
31
0.0
0
LINE
8
0
10
210.0
20
80.0
30
0.0
11
210.0
21
100.0
31
0.0
0
TEXT
8
0
10
0.0
20
65.0
30
0.0
40
6.0
1
420
0
LINE
8
0
10
-80.0
20
340.0
30
0.0
11
80.0
21
340.0
31
0.0
0
LINE
8
0
10
-80.0
20
320.0
30
0.0
11
-80.0
21
340.0
31
0.0
0
LINE
8
0
10
80.0
20
320.0
30
0.0
11
80.0
21
340.0
31
0.0
0
TEXT
8
0
10
0.0
20
350.0
30
0.0
40
6.0
1
160
0
LINE
8
0
10
230.0
20
100.0
30
0.0
11
230.0
21
320.0
31
0.0
0
LINE
8
0
10
210.0
20
100.0
30
0.0
11
230.0
21
100.0
31
0.0
0
LINE
8
0
10
80.0
20
320.0
30
0.0
11
230.0
21
320.0
31
0.0
0
TEXT
8
0
10
245.0
20
210.0
30
0.0
40
6.0
1
220
0
TEXT
8
0
10
-130.0
20
200.0
30
0.0
40
5.0
1
LEFT SPEAKER
0
TEXT
8
0
10
-130.0
20
185.0
30
0.0
40
4.0
1
2.95L
0
TEXT
8
0
10
130.0
20
200.0
30
0.0
40
5.0
1
RIGHT SPEAKER
0
TEXT
8
0
10
130.0
20
185.0
30
0.0
40
4.0
1
2.95L
0
TEXT
8
0
10
0.0
20
200.0
30
0.0
40
5.0
1
CENTER
0
TEXT
8
0
10
0.0
20
185.0
30
0.0
40
4.0
1
TOWER
0
TEXT
8
0
10
0.0
20
245.0
30
0.0
40
4.0
1
MIC
0
TEXT
8
0
10
-60.0
20
150.0
30
0.0
40
3.0
1
15mm BAFFLE
0
TEXT
8
0
10
60.0
20
150.0
30
0.0
40
3.0
1
15mm BAFFLE
0
TEXT
8
0
10
-60.0
20
360.0
30
0.0
40
5.0
1
120 (CENTER ZONE)
0
TEXT
8
0
10
350.0
20
380.0
30
0.0
40
10.0
1
=== 2. FRONT VIEW ===
0
LINE
8
OUTLINE
10
300.0
20
100.0
30
0.0
11
720.0
21
100.0
31
0.0
0
LINE
8
OUTLINE
10
300.0
20
100.0
30
0.0
11
300.0
21
300.0
31
0.0
0
LINE
8
OUTLINE
10
720.0
20
100.0
30
0.0
11
720.0
21
300.0
31
0.0
0
LINE
8
OUTLINE
10
300.0
20
300.0
30
0.0
11
720.0
21
300.0
31
0.0
0
LINE
8
OUTLINE
10
415.0
20
170.0
30
0.0
11
605.0
21
170.0
31
0.0
0
LINE
8
OUTLINE
10
415.0
20
170.0
30
0.0
11
415.0
21
270.0
31
0.0
0
LINE
8
OUTLINE
10
605.0
20
170.0
30
0.0
11
605.0
21
270.0
31
0.0
0
LINE
8
OUTLINE
10
415.0
20
270.0
30
0.0
11
605.0
21
270.0
31
0.0
0
CIRCLE
8
OUTLINE
10
365.0
20
235.0
30
0.0
40
34.0
0
CIRCLE
8
OUTLINE
10
365.0
20
160.0
30
0.0
40
34.0
0
CIRCLE
8
OUTLINE
10
655.0
20
235.0
30
0.0
40
34.0
0
CIRCLE
8
OUTLINE
10
655.0
20
160.0
30
0.0
40
34.0
0
LINE
8
0
10
300.0
20
80.0
30
0.0
11
720.0
21
80.0
31
0.0
0
LINE
8
0
10
300.0
20
80.0
30
0.0
11
300.0
21
100.0
31
0.0
0
LINE
8
0
10
720.0
20
80.0
30
0.0
11
720.0
21
100.0
31
0.0
0
TEXT
8
0
10
510.0
20
65.0
30
0.0
40
6.0
1
420
0
LINE
8
0
10
740.0
20
100.0
30
0.0
11
740.0
21
300.0
31
0.0
0
LINE
8
0
10
720.0
20
100.0
30
0.0
11
740.0
21
100.0
31
0.0
0
LINE
8
0
10
720.0
20
300.0
30
0.0
11
740.0
21
300.0
31
0.0
0
TEXT
8
0
10
755.0
20
200.0
30
0.0
40
6.0
1
200
0
TEXT
8
0
10
510.0
20
220.0
30
0.0
40
5.0
1
7inch LCD
0
TEXT
8
0
10
510.0
20
205.0
30
0.0
40
4.0
1
170x105mm
0
TEXT
8
0
10
365.0
20
235.0
30
0.0
40
3.0
1
DRIVER
0
TEXT
8
0
10
365.0
20
160.0
30
0.0
40
3.0
1
PASSIVE
0
TEXT
8
0
10
655.0
20
235.0
30
0.0
40
3.0
1
DRIVER
0
TEXT
8
0
10
655.0
20
160.0
30
0.0
40
3.0
1
PASSIVE
0
TEXT
8
0
10
280.0
20
235.0
30
0.0
40
4.0
1
Z=135
0
TEXT
8
0
10
280.0
20
160.0
30
0.0
40
4.0
1
Z=60
0
TEXT
8
0
10
-200.0
20
30.0
30
0.0
40
10.0
1
=== 3. SIDE VIEW ===
0
LINE
8
OUTLINE
10
-200.0
20
-200.0
30
0.0
11
20.0
21
-200.0
31
0.0
0
LINE
8
OUTLINE
10
-200.0
20
-200.0
30
0.0
11
-200.0
21
0.0
31
0.0
0
LINE
8
OUTLINE
10
20.0
20
-200.0
30
0.0
11
20.0
21
0.0
31
0.0
0
LINE
8
OUTLINE
10
-200.0
20
0.0
30
0.0
11
20.0
21
0.0
31
0.0
0
LINE
8
0
10
-200.0
20
-220.0
30
0.0
11
20.0
21
-220.0
31
0.0
0
LINE
8
0
10
-200.0
20
-200.0
30
0.0
11
-200.0
21
-220.0
31
0.0
0
LINE
8
0
10
20.0
20
-200.0
30
0.0
11
20.0
21
-220.0
31
0.0
0
TEXT
8
0
10
-90.0
20
-235.0
30
0.0
40
6.0
1
220 (DEPTH)
0
LINE
8
0
10
40.0
20
-200.0
30
0.0
11
40.0
21
0.0
31
0.0
0
LINE
8
0
10
20.0
20
-200.0
30
0.0
11
40.0
21
-200.0
31
0.0
0
LINE
8
0
10
20.0
20
0.0
30
0.0
11
40.0
21
0.0
31
0.0
0
TEXT
8
0
10
55.0
20
-100.0
30
0.0
40
6.0
1
200
0
TEXT
8
0
10
-90.0
20
-100.0
30
0.0
40
5.0
1
ELECTRONICS
0
TEXT
8
0
10
-90.0
20
-120.0
30
0.0
40
5.0
1
TOWER
0
TEXT
8
0
10
350.0
20
30.0
30
0.0
40
10.0
1
=== 4. SECTION VIEW (Z=100mm) ===
0
LINE
8
OUTLINE
10
300.0
20
-200.0
30
0.0
11
720.0
21
-200.0
31
0.0
0
LINE
8
OUTLINE
10
300.0
20
-200.0
30
0.0
11
430.0
21
0.0
31
0.0
0
LINE
8
OUTLINE
10
720.0
20
-200.0
30
0.0
11
590.0
21
0.0
31
0.0
0
LINE
8
OUTLINE
10
430.0
20
0.0
30
0.0
11
590.0
21
0.0
31
0.0
0
LINE
8
OUTLINE
10
450.0
20
-188.0
30
0.0
11
450.0
21
-20.0
31
0.0
0
LINE
8
OUTLINE
10
570.0
20
-188.0
30
0.0
11
570.0
21
-20.0
31
0.0
0
LINE
8
0
10
300.0
20
-220.0
30
0.0
11
720.0
21
-220.0
31
0.0
0
LINE
8
0
10
300.0
20
-200.0
30
0.0
11
300.0
21
-220.0
31
0.0
0
LINE
8
0
10
720.0
20
-200.0
30
0.0
11
720.0
21
-220.0
31
0.0
0
TEXT
8
0
10
510.0
20
-235.0
30
0.0
40
6.0
1
420 (FRONT)
0
LINE
8
0
10
430.0
20
20.0
30
0.0
11
590.0
21
20.0
31
0.0
0
LINE
8
0
10
430.0
20
0.0
30
0.0
11
430.0
21
20.0
31
0.0
0
LINE
8
0
10
590.0
20
0.0
30
0.0
11
590.0
21
20.0
31
0.0
0
TEXT
8
0
10
510.0
20
35.0
30
0.0
40
6.0
1
160 (BACK)
0
TEXT
8
0
10
370.0
20
-100.0
30
0.0
40
5.0
1
LEFT
0
TEXT
8
0
10
370.0
20
-120.0
30
0.0
40
4.0
1
SPEAKER
0
TEXT
8
0
10
650.0
20
-100.0
30
0.0
40
5.0
1
RIGHT
0
TEXT
8
0
10
650.0
20
-120.0
30
0.0
40
4.0
1
SPEAKER
0
TEXT
8
0
10
510.0
20
-100.0
30
0.0
40
5.0
1
CENTER
0
TEXT
8
0
10
510.0
20
-120.0
30
0.0
40
4.0
1
TOWER
0
TEXT
8
0
10
450.0
20
-150.0
30
0.0
40
3.0
1
15mm
0
TEXT
8
0
10
570.0
20
-150.0
30
0.0
40
3.0
1
15mm
0
TEXT
8
0
10
330.0
20
-195.0
30
0.0
40
3.0
1
12mm SHELL
0
TEXT
8
0
10
-200.0
20
-280.0
30
0.0
40
8.0
1
=== SPECIFICATIONS ===
0
TEXT
8
0
10
-200.0
20
-305.0
30
0.0
40
4.0
1
Front Width: 420mm
0
TEXT
8
0
10
-200.0
20
-325.0
30
0.0
40
4.0
1
Back Width: 160mm
0
TEXT
8
0
10
-200.0
20
-345.0
30
0.0
40
4.0
1
Depth: 220mm
0
TEXT
8
0
10
-200.0
20
-365.0
30
0.0
40
4.0
1
Height: 200mm
0
TEXT
8
0
10
50.0
20
-305.0
30
0.0
40
4.0
1
Shell: 12mm MDF
0
TEXT
8
0
10
50.0
20
-325.0
30
0.0
40
4.0
1
Baffles: 15mm MDF
0
TEXT
8
0
10
50.0
20
-345.0
30
0.0
40
4.0
1
Speaker Vol: 2.95L/ch
0
TEXT
8
0
10
50.0
20
-365.0
30
0.0
40
4.0
1
Driver Cutout: dia.68mm
0
TEXT
8
0
10
300.0
20
-280.0
30
0.0
40
8.0
1
=== NOTES ===
0
TEXT
8
0
10
300.0
20
-305.0
30
0.0
40
4.0
1
1. All dimensions in millimeters
0
TEXT
8
0
10
300.0
20
-325.0
30
0.0
40
4.0
1
2. Corner radii: Front R20, Back R40
0
TEXT
8
0
10
300.0
20
-345.0
30
0.0
40
4.0
1
3. Acoustic chambers must be airtight
0
TEXT
8
0
10
300.0
20
-365.0
30
0.0
40
4.0
1
4. Version: 4.0 Integrated Acoustic Wedge
0
ENDSEC
0
EOF
