0
SECTION
2
HEADER
9
$ACADVER
1
AC1015
9
$INSUNITS
70
4
0
ENDSEC
0
SECTION
2
TABLES
0
TABLE
2
LAYER
70
6
0
LAYER
2
0
70
0
62
7
6
CONTINUOUS
0
LAYER
2
OUTLINE
70
0
62
7
6
CONTINUOUS
0
LAYER
2
HIDDEN
70
0
62
8
6
DASHED
0
LAYER
2
DIMENSION
70
0
62
3
6
CONTINUOUS
0
LAYER
2
ANNOTATION
70
0
62
5
6
CONTINUOUS
0
LAYER
2
LEADER
70
0
62
1
6
CONTINUOUS
0
ENDTAB
0
ENDSEC
0
SECTION
2
ENTITIES
0
TEXT
8
ANNOTATION
10
0.0
20
500.0
30
0.0
40
12.0
1
OMNI-P4 v4.0 EXPLODED ASSEMBLY VIEW
0
TEXT
8
ANNOTATION
10
0.0
20
480.0
30
0.0
40
5.0
1
Integrated Acoustic Wedge - Component Layout
0
LINE
8
ANNOTATION
10
-300.0
20
470.0
30
0.0
11
300.0
21
470.0
31
0.0
0
LINE
8
OUTLINE
10
-180.0
20
440.0
30
0.0
11
180.0
21
440.0
31
0.0
0
LINE
8
OUTLINE
10
-180.0
20
440.0
30
0.0
11
-70.0
21
350.0
31
0.0
0
LINE
8
OUTLINE
10
180.0
20
440.0
30
0.0
11
70.0
21
350.0
31
0.0
0
ARC
8
OUTLINE
10
0.0
20
380.0
30
0.0
40
30.0
50
0.0
51
180.0
0
LINE
8
OUTLINE
10
-30.0
20
380.0
30
0.0
11
-70.0
21
350.0
31
0.0
0
LINE
8
OUTLINE
10
30.0
20
380.0
30
0.0
11
70.0
21
350.0
31
0.0
0
LINE
8
LEADER
10
200.0
20
400.0
30
0.0
11
120.0
21
420.0
31
0.0
0
LINE
8
LEADER
10
200.0
20
400.0
30
0.0
11
250.0
21
400.0
31
0.0
0
TEXT
8
ANNOTATION
10
260.0
20
400.0
30
0.0
40
4.0
1
1. OUTER SHELL (TOP)
0
TEXT
8
ANNOTATION
10
260.0
20
390.0
30
0.0
40
3.0
1
   12mm MDF, Qty: 1
0
LINE
8
HIDDEN
10
-50.0
20
350.0
30
0.0
11
-50.0
21
440.0
31
0.0
0
LINE
8
HIDDEN
10
50.0
20
350.0
30
0.0
11
50.0
21
440.0
31
0.0
0
LINE
8
OUTLINE
10
-6.0
20
300.0
30
0.0
11
6.0
21
300.0
31
0.0
0
LINE
8
OUTLINE
10
-6.0
20
300.0
30
0.0
11
-6.0
21
210.0
31
0.0
0
LINE
8
OUTLINE
10
6.0
20
300.0
30
0.0
11
6.0
21
210.0
31
0.0
0
LINE
8
OUTLINE
10
-6.0
20
210.0
30
0.0
11
6.0
21
210.0
31
0.0
0
CIRCLE
8
OUTLINE
10
0.0
20
275.0
30
0.0
40
26.0
0
CIRCLE
8
OUTLINE
10
0.0
20
235.0
30
0.0
40
26.0
0
LINE
8
OUTLINE
10
-106.0
20
300.0
30
0.0
11
-94.0
21
300.0
31
0.0
0
LINE
8
OUTLINE
10
-106.0
20
300.0
30
0.0
11
-106.0
21
210.0
31
0.0
0
LINE
8
OUTLINE
10
-94.0
20
300.0
30
0.0
11
-94.0
21
210.0
31
0.0
0
LINE
8
OUTLINE
10
-106.0
20
210.0
30
0.0
11
-94.0
21
210.0
31
0.0
0
CIRCLE
8
OUTLINE
10
-100.0
20
275.0
30
0.0
40
26.0
0
CIRCLE
8
OUTLINE
10
-100.0
20
235.0
30
0.0
40
26.0
0
LINE
8
OUTLINE
10
94.0
20
300.0
30
0.0
11
106.0
21
300.0
31
0.0
0
LINE
8
OUTLINE
10
94.0
20
300.0
30
0.0
11
94.0
21
210.0
31
0.0
0
LINE
8
OUTLINE
10
106.0
20
300.0
30
0.0
11
106.0
21
210.0
31
0.0
0
LINE
8
OUTLINE
10
94.0
20
210.0
30
0.0
11
106.0
21
210.0
31
0.0
0
CIRCLE
8
OUTLINE
10
100.0
20
275.0
30
0.0
40
26.0
0
CIRCLE
8
OUTLINE
10
100.0
20
235.0
30
0.0
40
26.0
0
LINE
8
LEADER
10
-200.0
20
255.0
30
0.0
11
-120.0
21
255.0
31
0.0
0
LINE
8
LEADER
10
-200.0
20
255.0
30
0.0
11
-250.0
21
255.0
31
0.0
0
TEXT
8
ANNOTATION
10
-260.0
20
260.0
30
0.0
40
4.0
1
2. INTERNAL BAFFLES
0
TEXT
8
ANNOTATION
10
-260.0
20
250.0
30
0.0
40
3.0
1
   15mm MDF, Qty: 2
0
LINE
8
LEADER
10
200.0
20
275.0
30
0.0
11
140.0
21
275.0
31
0.0
0
TEXT
8
ANNOTATION
10
210.0
20
280.0
30
0.0
40
4.0
1
3. SPEAKER DRIVERS
0
TEXT
8
ANNOTATION
10
210.0
20
270.0
30
0.0
40
3.0
1
   Peerless 2.5", Qty: 2
0
LINE
8
LEADER
10
200.0
20
235.0
30
0.0
11
140.0
21
235.0
31
0.0
0
TEXT
8
ANNOTATION
10
210.0
20
240.0
30
0.0
40
4.0
1
4. PASSIVE RADIATORS
0
TEXT
8
ANNOTATION
10
210.0
20
230.0
30
0.0
40
3.0
1
   Dayton Audio, Qty: 2
0
LINE
8
OUTLINE
10
-40.0
20
160.0
30
0.0
11
40.0
21
160.0
31
0.0
0
LINE
8
OUTLINE
10
-40.0
20
120.0
30
0.0
11
40.0
21
120.0
31
0.0
0
LINE
8
OUTLINE
10
-40.0
20
160.0
30
0.0
11
-40.0
21
120.0
31
0.0
0
LINE
8
OUTLINE
10
40.0
20
160.0
30
0.0
11
40.0
21
120.0
31
0.0
0
LINE
8
OUTLINE
10
-36.0
20
156.0
30
0.0
11
36.0
21
156.0
31
0.0
0
LINE
8
OUTLINE
10
-36.0
20
124.0
30
0.0
11
36.0
21
124.0
31
0.0
0
LINE
8
OUTLINE
10
-36.0
20
156.0
30
0.0
11
-36.0
21
124.0
31
0.0
0
LINE
8
OUTLINE
10
36.0
20
156.0
30
0.0
11
36.0
21
124.0
31
0.0
0
TEXT
8
ANNOTATION
10
0.0
20
140.0
30
0.0
40
3.5
1
LEVEL 3
0
TEXT
8
ANNOTATION
10
0.0
20
132.0
30
0.0
40
2.5
1
ESP32-P4
0
LINE
8
LEADER
10
-100.0
20
140.0
30
0.0
11
-50.0
21
140.0
31
0.0
0
TEXT
8
ANNOTATION
10
-180.0
20
145.0
30
0.0
40
4.0
1
5. ELECTRONICS TOWER
0
TEXT
8
ANNOTATION
10
-180.0
20
135.0
30
0.0
40
3.0
1
   3 Levels + LCD Mount
0
LINE
8
OUTLINE
10
-38.0
20
105.0
30
0.0
11
38.0
21
105.0
31
0.0
0
LINE
8
OUTLINE
10
-38.0
20
70.0
30
0.0
11
38.0
21
70.0
31
0.0
0
LINE
8
OUTLINE
10
-38.0
20
105.0
30
0.0
11
-38.0
21
70.0
31
0.0
0
LINE
8
OUTLINE
10
38.0
20
105.0
30
0.0
11
38.0
21
70.0
31
0.0
0
TEXT
8
ANNOTATION
10
0.0
20
90.0
30
0.0
40
3.5
1
LEVEL 2
0
TEXT
8
ANNOTATION
10
0.0
20
82.0
30
0.0
40
2.5
1
DAC + AMP
0
LINE
8
OUTLINE
10
-35.0
20
55.0
30
0.0
11
35.0
21
55.0
31
0.0
0
LINE
8
OUTLINE
10
-35.0
20
25.0
30
0.0
11
35.0
21
25.0
31
0.0
0
LINE
8
OUTLINE
10
-35.0
20
55.0
30
0.0
11
-35.0
21
25.0
31
0.0
0
LINE
8
OUTLINE
10
35.0
20
55.0
30
0.0
11
35.0
21
25.0
31
0.0
0
TEXT
8
ANNOTATION
10
0.0
20
42.0
30
0.0
40
3.5
1
LEVEL 1
0
TEXT
8
ANNOTATION
10
0.0
20
34.0
30
0.0
40
2.5
1
POWER + SENSORS
0
LINE
8
OUTLINE
10
-70.0
20
180.0
30
0.0
11
70.0
21
180.0
31
0.0
0
LINE
8
OUTLINE
10
-70.0
20
180.0
30
0.0
11
-70.0
21
200.0
31
0.0
0
LINE
8
OUTLINE
10
70.0
20
180.0
30
0.0
11
70.0
21
200.0
31
0.0
0
LINE
8
OUTLINE
10
-70.0
20
200.0
30
0.0
11
70.0
21
200.0
31
0.0
0
LINE
8
LEADER
10
100.0
20
190.0
30
0.0
11
80.0
21
190.0
31
0.0
0
TEXT
8
ANNOTATION
10
110.0
20
195.0
30
0.0
40
4.0
1
6. 7" LCD MODULE
0
TEXT
8
ANNOTATION
10
110.0
20
185.0
30
0.0
40
3.0
1
   170 x 105 x 5mm
0
CIRCLE
8
OUTLINE
10
0.0
20
0.0
30
0.0
40
25.0
0
CIRCLE
8
OUTLINE
10
0.0
20
0.0
30
0.0
40
20.0
0
LINE
8
LEADER
10
-60.0
20
0.0
30
0.0
11
-35.0
21
0.0
31
0.0
0
TEXT
8
ANNOTATION
10
-130.0
20
5.0
30
0.0
40
4.0
1
7. XVF3800 MIC ARRAY
0
TEXT
8
ANNOTATION
10
-130.0
20
-5.0
30
0.0
40
3.0
1
   40 x 40mm PCB
0
LINE
8
OUTLINE
10
-180.0
20
-40.0
30
0.0
11
180.0
21
-40.0
31
0.0
0
LINE
8
OUTLINE
10
-180.0
20
-40.0
30
0.0
11
-70.0
21
-130.0
31
0.0
0
LINE
8
OUTLINE
10
180.0
20
-40.0
30
0.0
11
70.0
21
-130.0
31
0.0
0
ARC
8
OUTLINE
10
0.0
20
-100.0
30
0.0
40
30.0
50
180.0
51
360.0
0
LINE
8
OUTLINE
10
-30.0
20
-100.0
30
0.0
11
-70.0
21
-130.0
31
0.0
0
LINE
8
OUTLINE
10
30.0
20
-100.0
30
0.0
11
70.0
21
-130.0
31
0.0
0
LINE
8
LEADER
10
200.0
20
-85.0
30
0.0
11
120.0
21
-60.0
31
0.0
0
TEXT
8
ANNOTATION
10
210.0
20
-80.0
30
0.0
40
4.0
1
8. OUTER SHELL (BOTTOM)
0
TEXT
8
ANNOTATION
10
210.0
20
-90.0
30
0.0
40
3.0
1
   12mm MDF, Qty: 1
0
LINE
8
OUTLINE
10
-160.0
20
-160.0
30
0.0
11
160.0
21
-160.0
31
0.0
0
LINE
8
OUTLINE
10
-160.0
20
-160.0
30
0.0
11
-160.0
21
-175.0
31
0.0
0
LINE
8
OUTLINE
10
160.0
20
-160.0
30
0.0
11
160.0
21
-175.0
31
0.0
0
LINE
8
OUTLINE
10
-160.0
20
-175.0
30
0.0
11
160.0
21
-175.0
31
0.0
0
LINE
8
LEADER
10
-200.0
20
-167.0
30
0.0
11
-170.0
21
-167.0
31
0.0
0
TEXT
8
ANNOTATION
10
-260.0
20
-162.0
30
0.0
40
4.0
1
9. FABRIC GRILLE
0
TEXT
8
ANNOTATION
10
-260.0
20
-172.0
30
0.0
40
3.0
1
   Acoustic fabric
0
TEXT
8
ANNOTATION
10
-200.0
20
-220.0
30
0.0
40
6.0
1
ASSEMBLY SEQUENCE:
0
TEXT
8
ANNOTATION
10
-200.0
20
-240.0
30
0.0
40
3.5
1
1. Assemble electronics tower (Levels 1-3 with standoffs)
0
TEXT
8
ANNOTATION
10
-200.0
20
-255.0
30
0.0
40
3.5
1
2. Mount speaker drivers and passive radiators on baffles
0
TEXT
8
ANNOTATION
10
-200.0
20
-270.0
30
0.0
40
3.5
1
3. Install baffles into shell bottom, seal joints
0
TEXT
8
ANNOTATION
10
-200.0
20
-285.0
30
0.0
40
3.5
1
4. Place electronics tower in center zone
0
TEXT
8
ANNOTATION
10
-200.0
20
-300.0
30
0.0
40
3.5
1
5. Connect all cables (I2S, I2C, power)
0
TEXT
8
ANNOTATION
10
-200.0
20
-315.0
30
0.0
40
3.5
1
6. Mount LCD module to tower top
0
TEXT
8
ANNOTATION
10
-200.0
20
-330.0
30
0.0
40
3.5
1
7. Install XVF3800 on top surface
0
TEXT
8
ANNOTATION
10
-200.0
20
-345.0
30
0.0
40
3.5
1
8. Attach shell top, seal all joints
0
TEXT
8
ANNOTATION
10
-200.0
20
-360.0
30
0.0
40
3.5
1
9. Apply fabric grille to front face
0
TEXT
8
ANNOTATION
10
100.0
20
-220.0
30
0.0
40
6.0
1
BILL OF MATERIALS:
0
LINE
8
OUTLINE
10
100.0
20
-235.0
30
0.0
11
350.0
21
-235.0
31
0.0
0
LINE
8
OUTLINE
10
100.0
20
-380.0
30
0.0
11
350.0
21
-380.0
31
0.0
0
LINE
8
OUTLINE
10
100.0
20
-235.0
30
0.0
11
100.0
21
-380.0
31
0.0
0
LINE
8
OUTLINE
10
350.0
20
-235.0
30
0.0
11
350.0
21
-380.0
31
0.0
0
LINE
8
OUTLINE
10
100.0
20
-250.0
30
0.0
11
350.0
21
-250.0
31
0.0
0
LINE
8
OUTLINE
10
140.0
20
-235.0
30
0.0
11
140.0
21
-380.0
31
0.0
0
LINE
8
OUTLINE
10
240.0
20
-235.0
30
0.0
11
240.0
21
-380.0
31
0.0
0
LINE
8
OUTLINE
10
290.0
20
-235.0
30
0.0
11
290.0
21
-380.0
31
0.0
0
TEXT
8
ANNOTATION
10
108.0
20
-245.0
30
0.0
40
2.5
1
QTY
0
TEXT
8
ANNOTATION
10
150.0
20
-245.0
30
0.0
40
2.5
1
PART
0
TEXT
8
ANNOTATION
10
248.0
20
-245.0
30
0.0
40
2.5
1
MATERIAL
0
TEXT
8
ANNOTATION
10
298.0
20
-245.0
30
0.0
40
2.5
1
SIZE
0
TEXT
8
ANNOTATION
10
110.0
20
-262.0
30
0.0
40
2.5
1
2
0
TEXT
8
ANNOTATION
10
150.0
20
-262.0
30
0.0
40
2.5
1
Shell Panel
0
TEXT
8
ANNOTATION
10
248.0
20
-262.0
30
0.0
40
2.5
1
12mm MDF
0
TEXT
8
ANNOTATION
10
298.0
20
-262.0
30
0.0
40
2.5
1
420x220
0
TEXT
8
ANNOTATION
10
110.0
20
-277.0
30
0.0
40
2.5
1
2
0
TEXT
8
ANNOTATION
10
150.0
20
-277.0
30
0.0
40
2.5
1
Internal Baffle
0
TEXT
8
ANNOTATION
10
248.0
20
-277.0
30
0.0
40
2.5
1
15mm MDF
0
TEXT
8
ANNOTATION
10
298.0
20
-277.0
30
0.0
40
2.5
1
196x176
0
TEXT
8
ANNOTATION
10
110.0
20
-292.0
30
0.0
40
2.5
1
3
0
TEXT
8
ANNOTATION
10
150.0
20
-292.0
30
0.0
40
2.5
1
Shelf Plate
0
TEXT
8
ANNOTATION
10
248.0
20
-292.0
30
0.0
40
2.5
1
2mm Al
0
TEXT
8
ANNOTATION
10
298.0
20
-292.0
30
0.0
40
2.5
1
80-100mm
0
TEXT
8
ANNOTATION
10
110.0
20
-307.0
30
0.0
40
2.5
1
12
0
TEXT
8
ANNOTATION
10
150.0
20
-307.0
30
0.0
40
2.5
1
M3 Standoff
0
TEXT
8
ANNOTATION
10
248.0
20
-307.0
30
0.0
40
2.5
1
Aluminum
0
TEXT
8
ANNOTATION
10
298.0
20
-307.0
30
0.0
40
2.5
1
25-43mm
0
TEXT
8
ANNOTATION
10
110.0
20
-322.0
30
0.0
40
2.5
1
2
0
TEXT
8
ANNOTATION
10
150.0
20
-322.0
30
0.0
40
2.5
1
Speaker Driver
0
TEXT
8
ANNOTATION
10
248.0
20
-322.0
30
0.0
40
2.5
1
Peerless
0
TEXT
8
ANNOTATION
10
298.0
20
-322.0
30
0.0
40
2.5
1
2.5"
0
TEXT
8
ANNOTATION
10
110.0
20
-337.0
30
0.0
40
2.5
1
2
0
TEXT
8
ANNOTATION
10
150.0
20
-337.0
30
0.0
40
2.5
1
Passive Rad
0
TEXT
8
ANNOTATION
10
248.0
20
-337.0
30
0.0
40
2.5
1
Dayton
0
TEXT
8
ANNOTATION
10
298.0
20
-337.0
30
0.0
40
2.5
1
2.5"
0
TEXT
8
ANNOTATION
10
110.0
20
-352.0
30
0.0
40
2.5
1
1
0
TEXT
8
ANNOTATION
10
150.0
20
-352.0
30
0.0
40
2.5
1
LCD Module
0
TEXT
8
ANNOTATION
10
248.0
20
-352.0
30
0.0
40
2.5
1
IPS
0
TEXT
8
ANNOTATION
10
298.0
20
-352.0
30
0.0
40
2.5
1
7"
0
TEXT
8
ANNOTATION
10
110.0
20
-367.0
30
0.0
40
2.5
1
1
0
TEXT
8
ANNOTATION
10
150.0
20
-367.0
30
0.0
40
2.5
1
XVF3800
0
TEXT
8
ANNOTATION
10
248.0
20
-367.0
30
0.0
40
2.5
1
PCB
0
TEXT
8
ANNOTATION
10
298.0
20
-367.0
30
0.0
40
2.5
1
40x40
0
ENDSEC
0
EOF
