0
SECTION
2
HEADER
9
$ACADVER
1
AC1015
9
$INSUNITS
70
4
0
ENDSEC
0
SECTION
2
ENTITIES
0
LWPOLYLINE
8
OUTLINE
90
4
70
1
10
-42.5
20
-32.5
10
42.5
20
-32.5
10
42.5
20
32.5
10
-42.5
20
32.5
0
CIRCLE
8
STANDOFF_HOLES
10
-37.5
20
-37.5
40
1.6
0
CIRCLE
8
STANDOFF_HOLES
10
37.5
20
-37.5
40
1.6
0
CIRCLE
8
STANDOFF_HOLES
10
37.5
20
37.5
40
1.6
0
CIRCLE
8
STANDOFF_HOLES
10
-37.5
20
37.5
40
1.6
0
LWPOLYLINE
8
HEAT_SLOT_1
90
4
70
1
10
-35.0
20
-15.0
10
-5.0
20
-15.0
10
-5.0
20
-12.0
10
-35.0
20
-12.0
0
LWPOLYLINE
8
HEAT_SLOT_2
90
4
70
1
10
5.0
20
-15.0
10
35.0
20
-15.0
10
35.0
20
-12.0
10
5.0
20
-12.0
0
LWPOLYLINE
8
HEAT_SLOT_3
90
4
70
1
10
-35.0
20
12.0
10
-5.0
20
12.0
10
-5.0
20
15.0
10
-35.0
20
15.0
0
LWPOLYLINE
8
HEAT_SLOT_4
90
4
70
1
10
5.0
20
12.0
10
35.0
20
12.0
10
35.0
20
15.0
10
5.0
20
15.0
0
LWPOLYLINE
8
HEAT_SLOT_CENTER
90
4
70
1
10
-15.0
20
-3.0
10
15.0
20
-3.0
10
15.0
20
3.0
10
-15.0
20
3.0
0
CIRCLE
8
ES9039Q2M_MOUNT
10
-30.0
20
-5.0
40
1.6
0
CIRCLE
8
ES9039Q2M_MOUNT
10
-10.0
20
-5.0
40
1.6
0
CIRCLE
8
ES9039Q2M_MOUNT
10
-30.0
20
5.0
40
1.6
0
CIRCLE
8
ES9039Q2M_MOUNT
10
-10.0
20
5.0
40
1.6
0
CIRCLE
8
TPA3116_AMP_MOUNT
10
10.0
20
-8.0
40
1.6
0
CIRCLE
8
TPA3116_AMP_MOUNT
10
35.0
20
-8.0
40
1.6
0
CIRCLE
8
TPA3116_AMP_MOUNT
10
10.0
20
8.0
40
1.6
0
CIRCLE
8
TPA3116_AMP_MOUNT
10
35.0
20
8.0
40
1.6
0
CIRCLE
8
CABLE_ROUTING
10
-38.0
20
0.0
40
4.0
0
CIRCLE
8
CABLE_ROUTING
10
38.0
20
0.0
40
4.0
0
CIRCLE
8
CABLE_ROUTING
10
0.0
20
-28.0
40
5.0
0
CIRCLE
8
CABLE_ROUTING
10
0.0
20
28.0
40
5.0
0
TEXT
8
ANNOTATION
10
-40.0
20
-40.0
40
2.0
1
Level 2: DAC + Amplifier (85x65mm)
0
TEXT
8
ANNOTATION
10
-28.0
20
-2.0
40
1.5
1
ES9039Q2M
0
TEXT
8
ANNOTATION
10
15.0
20
-2.0
40
1.5
1
TPA3116D2
0
TEXT
8
ANNOTATION
10
-25.0
20
18.0
40
1.2
1
HEAT SLOTS
0
0
ENDSEC
0
EOF
