0
SECTION
2
HEADER
9
$ACADVER
1
AC1015
9
$INSUNITS
70
4
0
ENDSEC
0
SECTION
2
TABLES
0
TABLE
2
LAYER
70
8
0
LAYER
2
OUTLINE
70
0
62
7
6
CONTINUOUS
0
LAYER
2
STANDOFF_M3
70
0
62
1
6
CONTINUOUS
0
LAYER
2
HEAT_SLOT
70
0
62
3
6
CONTINUOUS
0
LAYER
2
DAC_MOUNT
70
0
62
4
6
CONTINUOUS
0
LAYER
2
AMP_MOUNT
70
0
62
5
6
CONTINUOUS
0
LAYER
2
CABLE_HOLE
70
0
62
6
6
CONTINUOUS
0
ENDTAB
0
ENDSEC
0
SECTION
2
ENTITIES
0
TEXT
8
0
10
-38
20
40
40
3
1
Level 2: DAC + Amplifier
0
TEXT
8
0
10
-38
20
36
40
2
1
Plate: 85 x 65 mm, Al 2mm
0
TEXT
8
0
10
-38
20
32
40
2
1
Standoff Pitch: 55mm (M3)
0
LWPOLYLINE
8
OUTLINE
90
4
70
1
10
-42.5
20
-32.5
10
42.5
20
-32.5
10
42.5
20
32.5
10
-42.5
20
32.5
0
CIRCLE
8
STANDOFF_M3
10
-27.5
20
-27.5
40
1.6
0
CIRCLE
8
STANDOFF_M3
10
27.5
20
-27.5
40
1.6
0
CIRCLE
8
STANDOFF_M3
10
27.5
20
27.5
40
1.6
0
CIRCLE
8
STANDOFF_M3
10
-27.5
20
27.5
40
1.6
0
LWPOLYLINE
8
HEAT_SLOT
90
4
70
1
10
-35
20
-20
10
-10
20
-20
10
-10
20
-17
10
-35
20
-17
0
LWPOLYLINE
8
HEAT_SLOT
90
4
70
1
10
10
20
-20
10
35
20
-20
10
35
20
-17
10
10
20
-17
0
LWPOLYLINE
8
HEAT_SLOT
90
4
70
1
10
-35
20
17
10
-10
20
17
10
-10
20
20
10
-35
20
20
0
LWPOLYLINE
8
HEAT_SLOT
90
4
70
1
10
10
20
17
10
35
20
17
10
35
20
20
10
10
20
20
0
LWPOLYLINE
8
HEAT_SLOT
90
4
70
1
10
-12
20
-2
10
12
20
-2
10
12
20
2
10
-12
20
2
0
TEXT
8
0
10
-8
20
-6
40
1.2
1
HEAT VENT
0
CIRCLE
8
DAC_MOUNT
10
-30
20
-8
40
1.6
0
CIRCLE
8
DAC_MOUNT
10
-10
20
-8
40
1.6
0
CIRCLE
8
DAC_MOUNT
10
-30
20
8
40
1.6
0
CIRCLE
8
DAC_MOUNT
10
-10
20
8
40
1.6
0
TEXT
8
0
10
-28
20
0
40
1.5
1
ES9039Q2M
0
CIRCLE
8
AMP_MOUNT
10
8
20
-10
40
1.6
0
CIRCLE
8
AMP_MOUNT
10
32
20
-10
40
1.6
0
CIRCLE
8
AMP_MOUNT
10
8
20
10
40
1.6
0
CIRCLE
8
AMP_MOUNT
10
32
20
10
40
1.6
0
TEXT
8
0
10
12
20
0
40
1.5
1
TPA3116D2
0
CIRCLE
8
CABLE_HOLE
10
-38
20
0
40
5
0
CIRCLE
8
CABLE_HOLE
10
38
20
0
40
5
0
TEXT
8
0
10
-40
20
-5
40
1
1
I2S
0
TEXT
8
0
10
36
20
-5
40
1
1
SPK
0
CIRCLE
8
CABLE_HOLE
10
0
20
-28
40
6
0
CIRCLE
8
CABLE_HOLE
10
0
20
28
40
6
0
0
ENDSEC
0
EOF
