0
SECTION
2
HEADER
9
$ACADVER
1
AC1015
9
$INSUNITS
70
4
0
ENDSEC
0
SECTION
2
ENTITIES
0
LWPOLYLINE
8
OUTLINE
90
4
70
1
10
-50.0
20
-40.0
10
50.0
20
-40.0
10
50.0
20
40.0
10
-50.0
20
40.0
0
CIRCLE
8
STANDOFF_HOLES
10
-37.5
20
-37.5
40
1.6
0
CIRCLE
8
STANDOFF_HOLES
10
37.5
20
-37.5
40
1.6
0
CIRCLE
8
STANDOFF_HOLES
10
37.5
20
37.5
40
1.6
0
CIRCLE
8
STANDOFF_HOLES
10
-37.5
20
37.5
40
1.6
0
CIRCLE
8
ESP32P4_MOUNT
10
-27.5
20
-22.5
40
1.6
0
CIRCLE
8
ESP32P4_MOUNT
10
27.5
20
-22.5
40
1.6
0
CIRCLE
8
ESP32P4_MOUNT
10
27.5
20
22.5
40
1.6
0
CIRCLE
8
ESP32P4_MOUNT
10
-27.5
20
22.5
40
1.6
0
LWPOLYLINE
8
USB_CABLE_SLOT
90
4
70
1
10
-45.0
20
-5.0
10
-35.0
20
-5.0
10
-35.0
20
5.0
10
-45.0
20
5.0
0
LWPOLYLINE
8
RESPEAKER_CABLE_NOTCH
90
6
70
0
10
-8.0
20
40.0
10
-8.0
20
32.0
10
-6.0
20
30.0
10
6.0
20
30.0
10
8.0
20
32.0
10
8.0
20
40.0
0
CIRCLE
8
RESPEAKER_CABLE_HOLE
10
0.0
20
35.0
40
6.0
0
LWPOLYLINE
8
LCD_FPC_SLOT
90
4
70
1
10
-20.0
20
-38.0
10
20.0
20
-38.0
10
20.0
20
-32.0
10
-20.0
20
-32.0
0
CIRCLE
8
LCD_BRACKET_MOUNT_L
10
-40.0
20
-30.0
40
1.6
0
CIRCLE
8
LCD_BRACKET_MOUNT_L
10
-40.0
20
-15.0
40
1.6
0
CIRCLE
8
LCD_BRACKET_MOUNT_R
10
40.0
20
-30.0
40
1.6
0
CIRCLE
8
LCD_BRACKET_MOUNT_R
10
40.0
20
-15.0
40
1.6
0
LWPOLYLINE
8
VENT_SLOT_1
90
4
70
1
10
-30.0
20
5.0
10
-15.0
20
5.0
10
-15.0
20
8.0
10
-30.0
20
8.0
0
LWPOLYLINE
8
VENT_SLOT_2
90
4
70
1
10
15.0
20
5.0
10
30.0
20
5.0
10
30.0
20
8.0
10
15.0
20
8.0
0
CIRCLE
8
CABLE_ROUTING
10
-45.0
20
25.0
40
4.0
0
CIRCLE
8
CABLE_ROUTING
10
45.0
20
25.0
40
4.0
0
CIRCLE
8
CABLE_ROUTING
10
0.0
20
-25.0
40
5.0
0
TEXT
8
ANNOTATION
10
-48.0
20
-48.0
40
2.0
1
Level 3: ESP32-P4 + LCD (100x80mm)
0
TEXT
8
ANNOTATION
10
-15.0
20
0.0
40
1.5
1
ESP32-P4
0
TEXT
8
ANNOTATION
10
-15.0
20
-35.0
40
1.2
1
LCD FPC SLOT
0
TEXT
8
ANNOTATION
10
-12.0
20
35.0
40
1.2
1
ReSpeaker USB Cable
0
0
ENDSEC
0
EOF
