0
SECTION
2
HEADER
9
$ACADVER
1
AC1015
9
$INSUNITS
70
4
0
ENDSEC
0
SECTION
2
TABLES
0
TABLE
2
LAYER
70
10
0
LAYER
2
OUTLINE
70
0
62
7
6
CONTINUOUS
0
LAYER
2
STANDOFF_M3
70
0
62
1
6
CONTINUOUS
0
LAYER
2
VENTILATION
70
0
62
3
6
CONTINUOUS
0
LAYER
2
SENSOR_MOUNT
70
0
62
4
6
CONTINUOUS
0
LAYER
2
POWER_MOUNT
70
0
62
5
6
CONTINUOUS
0
LAYER
2
CABLE_HOLE
70
0
62
6
6
CONTINUOUS
0
ENDTAB
0
ENDSEC
0
SECTION
2
ENTITIES
0
TEXT
8
0
10
-35
20
35
40
3
1
Level 1: Power + 8 Sensors
0
TEXT
8
0
10
-35
20
31
40
2
1
Plate: 80 x 60 mm, Al 2mm
0
TEXT
8
0
10
-35
20
27
40
2
1
Standoff Pitch: 55mm (M3)
0
LWPOLYLINE
8
OUTLINE
90
4
70
1
10
-40
20
-30
10
40
20
-30
10
40
20
30
10
-40
20
30
0
CIRCLE
8
STANDOFF_M3
10
-27.5
20
-27.5
40
1.6
0
CIRCLE
8
STANDOFF_M3
10
27.5
20
-27.5
40
1.6
0
CIRCLE
8
STANDOFF_M3
10
27.5
20
27.5
40
1.6
0
CIRCLE
8
STANDOFF_M3
10
-27.5
20
27.5
40
1.6
0
LWPOLYLINE
8
VENTILATION
90
4
70
1
10
-25
20
-25
10
-5
20
-25
10
-5
20
-22
10
-25
20
-22
0
LWPOLYLINE
8
VENTILATION
90
4
70
1
10
5
20
-25
10
25
20
-25
10
25
20
-22
10
5
20
-22
0
LWPOLYLINE
8
VENTILATION
90
4
70
1
10
-25
20
22
10
-5
20
22
10
-5
20
25
10
-25
20
25
0
LWPOLYLINE
8
VENTILATION
90
4
70
1
10
5
20
22
10
25
20
22
10
25
20
25
10
5
20
25
0
CIRCLE
8
POWER_MOUNT
10
-28
20
8
40
1.6
0
CIRCLE
8
POWER_MOUNT
10
-18
20
8
40
1.6
0
CIRCLE
8
POWER_MOUNT
10
-28
20
-2
40
1.6
0
CIRCLE
8
POWER_MOUNT
10
-18
20
-2
40
1.6
0
TEXT
8
0
10
-30
20
3
40
1.5
1
DFR1015
0
LWPOLYLINE
8
POWER_MOUNT
90
4
70
1
10
5
20
0
10
35
20
0
10
35
20
8
10
5
20
8
0
TEXT
8
0
10
12
20
4
40
1.5
1
WAGO 221
0
CIRCLE
8
SENSOR_MOUNT
10
-32
20
-12
40
1.3
0
CIRCLE
8
SENSOR_MOUNT
10
-24
20
-12
40
1.3
0
TEXT
8
0
10
-32
20
-16
40
1
1
SCD41
0
CIRCLE
8
SENSOR_MOUNT
10
-14
20
-12
40
1.3
0
CIRCLE
8
SENSOR_MOUNT
10
-6
20
-12
40
1.3
0
TEXT
8
0
10
-14
20
-16
40
1
1
SGP40
0
CIRCLE
8
SENSOR_MOUNT
10
4
20
-12
40
1.3
0
CIRCLE
8
SENSOR_MOUNT
10
12
20
-12
40
1.3
0
TEXT
8
0
10
4
20
-16
40
1
1
ENS160
0
CIRCLE
8
SENSOR_MOUNT
10
22
20
-12
40
1.3
0
CIRCLE
8
SENSOR_MOUNT
10
30
20
-12
40
1.3
0
TEXT
8
0
10
22
20
-16
40
1
1
BMP388
0
CIRCLE
8
SENSOR_MOUNT
10
-32
20
15
40
1.3
0
CIRCLE
8
SENSOR_MOUNT
10
-24
20
15
40
1.3
0
TEXT
8
0
10
-32
20
11
40
1
1
SHT40
0
CIRCLE
8
SENSOR_MOUNT
10
-14
20
15
40
1.3
0
CIRCLE
8
SENSOR_MOUNT
10
-6
20
15
40
1.3
0
TEXT
8
0
10
-14
20
11
40
1
1
SEN0428
0
CIRCLE
8
SENSOR_MOUNT
10
8
20
15
40
1.3
0
CIRCLE
8
SENSOR_MOUNT
10
16
20
15
40
1.3
0
TEXT
8
0
10
6
20
11
40
1
1
SEN0395
0
CIRCLE
8
SENSOR_MOUNT
10
26
20
15
40
1.3
0
CIRCLE
8
SENSOR_MOUNT
10
34
20
15
40
1.3
0
TEXT
8
0
10
24
20
11
40
1
1
SEN0540
0
CIRCLE
8
CABLE_HOLE
10
0
20
-5
40
6
0
TEXT
8
0
10
-5
20
-8
40
1
1
Cable
0
0
ENDSEC
0
EOF
