0
SECTION
2
HEADER
9
$ACADVER
1
AC1015
9
$INSUNITS
70
4
0
ENDSEC
0
SECTION
2
ENTITIES
0
LWPOLYLINE
8
OUTLINE
90
4
70
1
10
-40.0
20
-30.0
10
40.0
20
-30.0
10
40.0
20
30.0
10
-40.0
20
30.0
0
CIRCLE
8
STANDOFF_HOLES
10
-37.5
20
-37.5
40
1.6
0
CIRCLE
8
STANDOFF_HOLES
10
37.5
20
-37.5
40
1.6
0
CIRCLE
8
STANDOFF_HOLES
10
37.5
20
37.5
40
1.6
0
CIRCLE
8
STANDOFF_HOLES
10
-37.5
20
37.5
40
1.6
0
LWPOLYLINE
8
VENTILATION
90
4
70
1
10
-30.0
20
-20.0
10
-10.0
20
-20.0
10
-10.0
20
-16.0
10
-30.0
20
-16.0
0
LWPOLYLINE
8
VENTILATION
90
4
70
1
10
10.0
20
-20.0
10
30.0
20
-20.0
10
30.0
20
-16.0
10
10.0
20
-16.0
0
LWPOLYLINE
8
VENTILATION
90
4
70
1
10
-30.0
20
16.0
10
-10.0
20
16.0
10
-10.0
20
20.0
10
-30.0
20
20.0
0
LWPOLYLINE
8
VENTILATION
90
4
70
1
10
10.0
20
16.0
10
30.0
20
16.0
10
30.0
20
20.0
10
10.0
20
20.0
0
CIRCLE
8
DFR1015_MOUNT
10
-25.0
20
0.0
40
1.6
0
CIRCLE
8
DFR1015_MOUNT
10
-15.0
20
0.0
40
1.6
0
CIRCLE
8
DFR1015_MOUNT
10
-25.0
20
10.0
40
1.6
0
CIRCLE
8
DFR1015_MOUNT
10
-15.0
20
10.0
40
1.6
0
LWPOLYLINE
8
WAGO_SLOT
90
4
70
1
10
15.0
20
-5.0
10
35.0
20
-5.0
10
35.0
20
5.0
10
15.0
20
5.0
0
CIRCLE
8
SENSOR_SCD41
10
-32.0
20
-10.0
40
1.3
0
CIRCLE
8
SENSOR_SCD41
10
-26.0
20
-10.0
40
1.3
0
CIRCLE
8
SENSOR_SGP40
10
-20.0
20
-10.0
40
1.3
0
CIRCLE
8
SENSOR_SGP40
10
-14.0
20
-10.0
40
1.3
0
CIRCLE
8
SENSOR_ENS160
10
-8.0
20
-10.0
40
1.3
0
CIRCLE
8
SENSOR_ENS160
10
-2.0
20
-10.0
40
1.3
0
CIRCLE
8
SENSOR_BMP388
10
4.0
20
-10.0
40
1.3
0
CIRCLE
8
SENSOR_BMP388
10
10.0
20
-10.0
40
1.3
0
CIRCLE
8
SENSOR_SHT40
10
-32.0
20
10.0
40
1.3
0
CIRCLE
8
SENSOR_SHT40
10
-26.0
20
10.0
40
1.3
0
CIRCLE
8
SENSOR_SEN0428
10
-8.0
20
10.0
40
1.3
0
CIRCLE
8
SENSOR_SEN0428
10
-2.0
20
10.0
40
1.3
0
CIRCLE
8
SENSOR_UART_SEN0395
10
4.0
20
22.0
40
1.3
0
CIRCLE
8
SENSOR_UART_SEN0395
10
10.0
20
22.0
40
1.3
0
CIRCLE
8
SENSOR_UART_SEN0540
10
20.0
20
22.0
40
1.3
0
CIRCLE
8
SENSOR_UART_SEN0540
10
26.0
20
22.0
40
1.3
0
CIRCLE
8
CABLE_ROUTING
10
0.0
20
-26.0
40
5.0
0
CIRCLE
8
CABLE_ROUTING
10
0.0
20
26.0
40
5.0
0
TEXT
8
ANNOTATION
10
-38.0
20
-35.0
40
2.0
1
Level 1: Power + Sensors (80x60mm)
0
TEXT
8
ANNOTATION
10
-25.0
20
6.0
40
1.5
1
DFR1015
0
TEXT
8
ANNOTATION
10
18.0
20
0.0
40
1.5
1
WAGO 221
0
0
ENDSEC
0
EOF
