0
SECTION
2
HEADER
9
$ACADVER
1
AC1015
9
$INSUNITS
70
4
0
ENDSEC
0
SECTION
2
TABLES
0
TABLE
2
LAYER
70
10
0
LAYER
2
OUTLINE
70
0
62
7
6
CONTINUOUS
0
LAYER
2
STANDOFF_M3
70
0
62
1
6
CONTINUOUS
0
LAYER
2
ESP32P4_MOUNT
70
0
62
4
6
CONTINUOUS
0
LAYER
2
LCD_SUPPORT
70
0
62
5
6
CONTINUOUS
0
LAYER
2
RESPEAKER_CABLE
70
0
62
2
6
CONTINUOUS
0
LAYER
2
CABLE_HOLE
70
0
62
6
6
CONTINUOUS
0
LAYER
2
VENT_SLOT
70
0
62
3
6
CONTINUOUS
0
ENDTAB
0
ENDSEC
0
SECTION
2
ENTITIES
0
TEXT
8
0
10
-45
20
48
40
3
1
Level 3: ESP32-P4 + LCD Support
0
TEXT
8
0
10
-45
20
44
40
2
1
Plate: 100 x 80 mm, Al 2mm
0
TEXT
8
0
10
-45
20
40
40
2
1
Standoff Pitch: 75mm (M3)
0
LWPOLYLINE
8
OUTLINE
90
4
70
1
10
-50
20
-40
10
50
20
-40
10
50
20
40
10
-50
20
40
0
CIRCLE
8
STANDOFF_M3
10
-37.5
20
-37.5
40
1.6
0
CIRCLE
8
STANDOFF_M3
10
37.5
20
-37.5
40
1.6
0
CIRCLE
8
STANDOFF_M3
10
37.5
20
37.5
40
1.6
0
CIRCLE
8
STANDOFF_M3
10
-37.5
20
37.5
40
1.6
0
CIRCLE
8
ESP32P4_MOUNT
10
-27.5
20
-22.5
40
1.6
0
CIRCLE
8
ESP32P4_MOUNT
10
27.5
20
-22.5
40
1.6
0
CIRCLE
8
ESP32P4_MOUNT
10
27.5
20
22.5
40
1.6
0
CIRCLE
8
ESP32P4_MOUNT
10
-27.5
20
22.5
40
1.6
0
TEXT
8
0
10
-12
20
0
40
2
1
ESP32-P4
0
LWPOLYLINE
8
RESPEAKER_CABLE
90
6
70
0
10
-10
20
40
10
-10
20
32
10
-8
20
30
10
8
20
30
10
10
20
32
10
10
20
40
0
CIRCLE
8
RESPEAKER_CABLE
10
0
20
35
40
8
0
TEXT
8
0
10
-18
20
35
40
1.5
1
ReSpeaker USB
0
LWPOLYLINE
8
LCD_SUPPORT
90
4
70
1
10
-25
20
-38
10
25
20
-38
10
25
20
-32
10
-25
20
-32
0
TEXT
8
0
10
-12
20
-35
40
1.5
1
LCD FPC
0
CIRCLE
8
LCD_SUPPORT
10
-42
20
-32
40
1.6
0
CIRCLE
8
LCD_SUPPORT
10
-42
20
-18
40
1.6
0
CIRCLE
8
LCD_SUPPORT
10
42
20
-32
40
1.6
0
CIRCLE
8
LCD_SUPPORT
10
42
20
-18
40
1.6
0
TEXT
8
0
10
-46
20
-25
40
1
1
LCD
0
TEXT
8
0
10
40
20
-25
40
1
1
LCD
0
LWPOLYLINE
8
VENT_SLOT
90
4
70
1
10
-35
20
5
10
-15
20
5
10
-15
20
8
10
-35
20
8
0
LWPOLYLINE
8
VENT_SLOT
90
4
70
1
10
15
20
5
10
35
20
5
10
35
20
8
10
15
20
8
0
CIRCLE
8
CABLE_HOLE
10
-45
20
15
40
5
0
CIRCLE
8
CABLE_HOLE
10
45
20
15
40
5
0
TEXT
8
0
10
-47
20
10
40
1
1
USB
0
TEXT
8
0
10
43
20
10
40
1
1
PWR
0
CIRCLE
8
CABLE_HOLE
10
0
20
-25
40
6
0
0
ENDSEC
0
EOF
