0
SECTION
2
HEADER
9
$ACADVER
1
AC1015
9
$INSUNITS
70
4
9
$EXTMIN
10
-42.5
20
-32.5
9
$EXTMAX
10
42.5
20
32.5
0
ENDSEC
0
SECTION
2
TABLES
0
TABLE
2
LAYER
70
4
0
LAYER
2
OUTLINE
70
0
62
7
6
CONTINUOUS
0
LAYER
2
M3_HOLE
70
0
62
1
6
CONTINUOUS
0
LAYER
2
HEAT_SLOT
70
0
62
3
6
CONTINUOUS
0
LAYER
2
ANNOTATION
70
0
62
8
6
CONTINUOUS
0
ENDTAB
0
ENDSEC
0
SECTION
2
ENTITIES
0
TEXT
8
ANNOTATION
10
0.0
20
42.0
40
3.0
72
1
11
0.0
21
42.0
1
PLATE LEVEL 2: DAC + AMPLIFIER
0
TEXT
8
ANNOTATION
10
0.0
20
37.0
40
2.0
72
1
11
0.0
21
37.0
1
85 x 65 mm, Al 2.0mm, Standoff Pitch 55mm
0
LWPOLYLINE
8
OUTLINE
90
4
70
1
10
-42.5
20
-32.5
10
42.5
20
-32.5
10
42.5
20
32.5
10
-42.5
20
32.5
0
CIRCLE
8
M3_HOLE
10
-27.5
20
-27.5
40
1.6
0
CIRCLE
8
M3_HOLE
10
27.5
20
-27.5
40
1.6
0
CIRCLE
8
M3_HOLE
10
27.5
20
27.5
40
1.6
0
CIRCLE
8
M3_HOLE
10
-27.5
20
27.5
40
1.6
0
LWPOLYLINE
8
HEAT_SLOT
90
4
70
1
10
-35.0
20
-15.0
10
-5.0
20
-15.0
10
-5.0
20
-12.0
10
-35.0
20
-12.0
0
LWPOLYLINE
8
HEAT_SLOT
90
4
70
1
10
5.0
20
-15.0
10
35.0
20
-15.0
10
35.0
20
-12.0
10
5.0
20
-12.0
0
LWPOLYLINE
8
HEAT_SLOT
90
4
70
1
10
-35.0
20
-3.0
10
-5.0
20
-3.0
10
-5.0
20
0.0
10
-35.0
20
0.0
0
LWPOLYLINE
8
HEAT_SLOT
90
4
70
1
10
5.0
20
-3.0
10
35.0
20
-3.0
10
35.0
20
0.0
10
5.0
20
0.0
0
LWPOLYLINE
8
HEAT_SLOT
90
4
70
1
10
-35.0
20
12.0
10
-5.0
20
12.0
10
-5.0
20
15.0
10
-35.0
20
15.0
0
LWPOLYLINE
8
HEAT_SLOT
90
4
70
1
10
5.0
20
12.0
10
35.0
20
12.0
10
35.0
20
15.0
10
5.0
20
15.0
0
CIRCLE
8
M3_HOLE
10
0.0
20
-25.0
40
4.0
0
TEXT
8
ANNOTATION
10
0.0
20
-28.0
40
1.2
72
1
11
0.0
21
-28.0
1
CABLE
0
CIRCLE
8
M3_HOLE
10
0.0
20
25.0
40
4.0
0
TEXT
8
ANNOTATION
10
0.0
20
22.0
40
1.2
72
1
11
0.0
21
22.0
1
CABLE
0
0
ENDSEC
0
EOF
