0
SECTION
2
HEADER
9
$ACADVER
1
AC1015
9
$INSUNITS
70
4
9
$EXTMIN
10
-50.0
20
-40.0
9
$EXTMAX
10
50.0
20
40.0
0
ENDSEC
0
SECTION
2
TABLES
0
TABLE
2
LAYER
70
5
0
LAYER
2
OUTLINE
70
0
62
7
6
CONTINUOUS
0
LAYER
2
M3_HOLE
70
0
62
1
6
CONTINUOUS
0
LAYER
2
USB_SLOT
70
0
62
2
6
CONTINUOUS
0
LAYER
2
VENT_SLOT
70
0
62
3
6
CONTINUOUS
0
LAYER
2
ANNOTATION
70
0
62
8
6
CONTINUOUS
0
ENDTAB
0
ENDSEC
0
SECTION
2
ENTITIES
0
TEXT
8
ANNOTATION
10
0.0
20
50.0
40
3.0
72
1
11
0.0
21
50.0
1
PLATE LEVEL 3: ESP32-P4 + ReSpeaker
0
TEXT
8
ANNOTATION
10
0.0
20
45.0
40
2.0
72
1
11
0.0
21
45.0
1
100 x 80 mm, Al 2.0mm, Standoff Pitch 55mm
0
LWPOLYLINE
8
OUTLINE
90
4
70
1
10
-50.0
20
-40.0
10
50.0
20
-40.0
10
50.0
20
40.0
10
-50.0
20
40.0
0
CIRCLE
8
M3_HOLE
10
-27.5
20
-27.5
40
1.6
0
CIRCLE
8
M3_HOLE
10
27.5
20
-27.5
40
1.6
0
CIRCLE
8
M3_HOLE
10
27.5
20
27.5
40
1.6
0
CIRCLE
8
M3_HOLE
10
-27.5
20
27.5
40
1.6
0
LWPOLYLINE
8
USB_SLOT
90
8
70
0
10
-8.0
20
40.0
10
-8.0
20
30.0
42
0.414214
10
-6.0
20
28.0
10
6.0
20
28.0
42
0.414214
10
8.0
20
30.0
10
8.0
20
40.0
0
TEXT
8
ANNOTATION
10
0.0
20
33.0
40
1.5
72
1
11
0.0
21
33.0
1
ReSpeaker USB
0
LWPOLYLINE
8
VENT_SLOT
90
4
70
1
10
-40.0
20
-5.0
10
-15.0
20
-5.0
10
-15.0
20
-2.0
10
-40.0
20
-2.0
0
LWPOLYLINE
8
VENT_SLOT
90
4
70
1
10
15.0
20
-5.0
10
40.0
20
-5.0
10
40.0
20
-2.0
10
15.0
20
-2.0
0
LWPOLYLINE
8
VENT_SLOT
90
4
70
1
10
-40.0
20
2.0
10
-15.0
20
2.0
10
-15.0
20
5.0
10
-40.0
20
5.0
0
LWPOLYLINE
8
VENT_SLOT
90
4
70
1
10
15.0
20
2.0
10
40.0
20
2.0
10
40.0
20
5.0
10
15.0
20
5.0
0
CIRCLE
8
M3_HOLE
10
0.0
20
-32.0
40
5.0
0
TEXT
8
ANNOTATION
10
0.0
20
-35.0
40
1.2
72
1
11
0.0
21
-35.0
1
LCD FPC
0
CIRCLE
8
M3_HOLE
10
-45.0
20
15.0
40
3.5
0
TEXT
8
ANNOTATION
10
-45.0
20
10.0
40
1.0
72
1
11
-45.0
21
10.0
1
USB
0
CIRCLE
8
M3_HOLE
10
45.0
20
15.0
40
3.5
0
TEXT
8
ANNOTATION
10
45.0
20
10.0
40
1.0
72
1
11
45.0
21
10.0
1
PWR
0
0
ENDSEC
0
EOF
