0
SECTION
2
HEADER
9
$ACADVER
1
AC1014
9
$INSUNITS
70
4
0
ENDSEC
0
SECTION
2
ENTITIES
0
LWPOLYLINE
8
OUTLINE
90
8
70
1
43
0.0
10
-46.0
20
-38.5
10
46.0
20
-38.5
42
0.4
10
50.0
20
-34.5
10
50.0
20
34.5
42
0.4
10
46.0
20
38.5
10
-46.0
20
38.5
42
0.4
10
-50.0
20
34.5
10
-50.0
20
-34.5
42
0.4
0
CIRCLE
8
STANDOFF
10
-45.0
20
-45.0
40
1.75
0
CIRCLE
8
STANDOFF
10
45.0
20
-45.0
40
1.75
0
CIRCLE
8
STANDOFF
10
45.0
20
45.0
40
1.75
0
CIRCLE
8
STANDOFF
10
-45.0
20
45.0
40
1.75
0
LWPOLYLINE
8
AIRFLOW
90
8
70
1
43
0.0
10
-22.0
20
-17.0
10
22.0
20
-17.0
42
0.4
10
25.0
20
-14.0
10
25.0
20
14.0
42
0.4
10
22.0
20
17.0
10
-22.0
20
17.0
42
0.4
10
-25.0
20
14.0
10
-25.0
20
-14.0
42
0.4
0
LWPOLYLINE
8
SLOT
90
4
70
1
43
0.0
10
-37.5
20
27.0
42
1.0
10
-22.5
20
27.0
42
1.0
10
-22.5
20
23.0
42
1.0
10
-37.5
20
23.0
42
1.0
0
LWPOLYLINE
8
SLOT
90
4
70
1
43
0.0
10
22.5
20
27.0
42
1.0
10
37.5
20
27.0
42
1.0
10
37.5
20
23.0
42
1.0
10
22.5
20
23.0
42
1.0
0
LWPOLYLINE
8
SLOT
90
4
70
1
43
0.0
10
-37.5
20
-23.0
42
1.0
10
-22.5
20
-23.0
42
1.0
10
-22.5
20
-27.0
42
1.0
10
-37.5
20
-27.0
42
1.0
0
LWPOLYLINE
8
SLOT
90
4
70
1
43
0.0
10
22.5
20
-23.0
42
1.0
10
37.5
20
-23.0
42
1.0
10
37.5
20
-27.0
42
1.0
10
22.5
20
-27.0
42
1.0
0
LWPOLYLINE
8
SLOT
90
4
70
1
43
0.0
10
-40.0
20
7.5
42
1.0
10
-40.0
20
-7.5
42
1.0
10
-36.0
20
-7.5
42
1.0
10
-36.0
20
7.5
42
1.0
0
LWPOLYLINE
8
SLOT
90
4
70
1
43
0.0
10
36.0
20
7.5
42
1.0
10
36.0
20
-7.5
42
1.0
10
40.0
20
-7.5
42
1.0
10
40.0
20
7.5
42
1.0
0
0
ENDSEC
0
SECTION
2
OBJECTS
0
ENDSEC
0
EOF
