0
SECTION
2
HEADER
9
$ACADVER
1
AC1014
9
$INSUNITS
70
4
0
ENDSEC
0
SECTION
2
ENTITIES
0
LWPOLYLINE
8
OUTLINE
90
8
70
1
43
0.0
10
-56.0
20
-46.0
10
56.0
20
-46.0
42
0.4
10
60.0
20
-42.0
10
60.0
20
42.0
42
0.4
10
56.0
20
46.0
10
-56.0
20
46.0
42
0.4
10
-60.0
20
42.0
10
-60.0
20
-42.0
42
0.4
0
CIRCLE
8
STANDOFF
10
-45.0
20
-45.0
40
1.75
0
CIRCLE
8
STANDOFF
10
45.0
20
-45.0
40
1.75
0
CIRCLE
8
STANDOFF
10
45.0
20
45.0
40
1.75
0
CIRCLE
8
STANDOFF
10
-45.0
20
45.0
40
1.75
0
LWPOLYLINE
8
L_SLOT_TL
90
6
70
1
43
0.0
10
-34.0
20
38.0
10
-34.0
20
44.0
42
1.0
10
-37.0
20
44.0
10
-37.0
20
38.0
42
1.0
10
-43.0
20
38.0
10
-43.0
20
41.0
42
1.0
0
LWPOLYLINE
8
L_SLOT_TR
90
6
70
1
43
0.0
10
34.0
20
41.0
10
34.0
20
38.0
42
1.0
10
43.0
20
38.0
10
43.0
20
44.0
42
1.0
10
37.0
20
44.0
10
37.0
20
41.0
42
1.0
0
LWPOLYLINE
8
L_SLOT_BR
90
6
70
1
43
0.0
10
37.0
20
-41.0
10
37.0
20
-38.0
42
1.0
10
34.0
20
-38.0
10
34.0
20
-44.0
42
1.0
10
43.0
20
-44.0
10
43.0
20
-41.0
42
1.0
0
LWPOLYLINE
8
L_SLOT_BL
90
6
70
1
43
0.0
10
-43.0
20
-41.0
10
-43.0
20
-44.0
42
1.0
10
-34.0
20
-44.0
10
-34.0
20
-38.0
42
1.0
10
-37.0
20
-38.0
10
-37.0
20
-41.0
42
1.0
0
LWPOLYLINE
8
CABLE_HOLE
90
8
70
1
43
0.0
10
-17.0
20
-28.0
10
17.0
20
-28.0
42
0.4
10
20.0
20
-25.0
10
20.0
20
-5.0
42
0.4
10
17.0
20
-2.0
10
-17.0
20
-2.0
42
0.4
10
-20.0
20
-5.0
10
-20.0
20
-25.0
42
0.4
0
ENDSEC
0
SECTION
2
OBJECTS
0
ENDSEC
0
EOF
