0
SECTION
2
HEADER
9
$ACADVER
1
AC1014
9
$INSUNITS
70
4
0
ENDSEC
0
SECTION
2
ENTITIES
0
LWPOLYLINE
8
OUTLINE
90
8
70
1
43
0.0
10
-51.0
20
-43.5
10
51.0
20
-43.5
42
0.4
10
55.0
20
-39.5
10
55.0
20
39.5
42
0.4
10
51.0
20
43.5
10
-51.0
20
43.5
42
0.4
10
-55.0
20
39.5
10
-55.0
20
-39.5
42
0.4
0
CIRCLE
8
STANDOFF
10
-45.0
20
-45.0
40
1.75
0
CIRCLE
8
STANDOFF
10
45.0
20
-45.0
40
1.75
0
CIRCLE
8
STANDOFF
10
45.0
20
45.0
40
1.75
0
CIRCLE
8
STANDOFF
10
-45.0
20
45.0
40
1.75
0
LWPOLYLINE
8
SLOT
90
4
70
1
43
0.0
10
-37.5
20
27.0
42
1.0
10
-22.5
20
27.0
42
1.0
10
-22.5
20
23.0
42
1.0
10
-37.5
20
23.0
42
1.0
0
LWPOLYLINE
8
SLOT
90
4
70
1
43
0.0
10
-7.5
20
27.0
42
1.0
10
7.5
20
27.0
42
1.0
10
7.5
20
23.0
42
1.0
10
-7.5
20
23.0
42
1.0
0
LWPOLYLINE
8
SLOT
90
4
70
1
43
0.0
10
22.5
20
27.0
42
1.0
10
37.5
20
27.0
42
1.0
10
37.5
20
23.0
42
1.0
10
22.5
20
23.0
42
1.0
0
LWPOLYLINE
8
SLOT
90
4
70
1
43
0.0
10
-30.0
20
11.0
42
1.0
10
-30.0
20
-4.0
42
1.0
10
-26.0
20
-4.0
42
1.0
10
-26.0
20
11.0
42
1.0
0
LWPOLYLINE
8
SLOT
90
4
70
1
43
0.0
10
-2.0
20
11.0
42
1.0
10
-2.0
20
-4.0
42
1.0
10
2.0
20
-4.0
42
1.0
10
2.0
20
11.0
42
1.0
0
LWPOLYLINE
8
SLOT
90
4
70
1
43
0.0
10
26.0
20
11.0
42
1.0
10
26.0
20
-4.0
42
1.0
10
30.0
20
-4.0
42
1.0
10
30.0
20
11.0
42
1.0
0
LWPOLYLINE
8
SLOT
90
4
70
1
43
0.0
10
-37.5
20
-15.0
42
1.0
10
-22.5
20
-15.0
42
1.0
10
-22.5
20
-19.0
42
1.0
10
-37.5
20
-19.0
42
1.0
0
LWPOLYLINE
8
SLOT
90
4
70
1
43
0.0
10
-7.5
20
-15.0
42
1.0
10
7.5
20
-15.0
42
1.0
10
7.5
20
-19.0
42
1.0
10
-7.5
20
-19.0
42
1.0
0
LWPOLYLINE
8
SLOT
90
4
70
1
43
0.0
10
22.5
20
-15.0
42
1.0
10
37.5
20
-15.0
42
1.0
10
37.5
20
-19.0
42
1.0
10
22.5
20
-19.0
42
1.0
0
LWPOLYLINE
8
SLOT
90
4
70
1
43
0.0
10
-30.0
20
-27.0
42
1.0
10
-30.0
20
-32.0
42
1.0
10
-26.0
20
-32.0
42
1.0
10
-26.0
20
-27.0
42
1.0
0
LWPOLYLINE
8
SLOT
90
4
70
1
43
0.0
10
-2.0
20
-27.0
42
1.0
10
-2.0
20
-32.0
42
1.0
10
2.0
20
-32.0
42
1.0
10
2.0
20
-27.0
42
1.0
0
LWPOLYLINE
8
SLOT
90
4
70
1
43
0.0
10
26.0
20
-27.0
42
1.0
10
26.0
20
-32.0
42
1.0
10
30.0
20
-32.0
42
1.0
10
30.0
20
-27.0
42
1.0
0
ENDSEC
0
SECTION
2
OBJECTS
0
ENDSEC
0
EOF
