0
SECTION
2
HEADER
9
$ACADVER
1
AC1015
9
$INSUNITS
70
4
9
$EXTMIN
10
-40.0
20
-30.0
9
$EXTMAX
10
40.0
20
30.0
0
ENDSEC
0
SECTION
2
TABLES
0
TABLE
2
LAYER
70
6
0
LAYER
2
OUTLINE
70
0
62
7
6
CONTINUOUS
0
LAYER
2
M3_HOLE
70
0
62
1
6
CONTINUOUS
0
LAYER
2
INTAKE_SLOT
70
0
62
3
6
CONTINUOUS
0
LAYER
2
SENSOR_MOUNT
70
0
62
4
6
CONTINUOUS
0
LAYER
2
POWER_MOUNT
70
0
62
5
6
CONTINUOUS
0
LAYER
2
ANNOTATION
70
0
62
8
6
CONTINUOUS
0
ENDTAB
0
ENDSEC
0
SECTION
2
ENTITIES
0
TEXT
8
ANNOTATION
10
0.0
20
38.0
40
3.0
72
1
11
0.0
21
38.0
1
PLATE LEVEL 1: POWER + 8 SENSORS
0
TEXT
8
ANNOTATION
10
0.0
20
33.0
40
2.0
72
1
11
0.0
21
33.0
1
80 x 60 mm, Al 2.0mm, Standoff Pitch 55mm
0
LWPOLYLINE
8
OUTLINE
90
4
70
1
10
-40.0
20
-30.0
10
40.0
20
-30.0
10
40.0
20
30.0
10
-40.0
20
30.0
0
CIRCLE
8
M3_HOLE
10
-27.5
20
-27.5
40
1.6
0
CIRCLE
8
M3_HOLE
10
27.5
20
-27.5
40
1.6
0
CIRCLE
8
M3_HOLE
10
27.5
20
27.5
40
1.6
0
CIRCLE
8
M3_HOLE
10
-27.5
20
27.5
40
1.6
0
LWPOLYLINE
8
INTAKE_SLOT
90
4
70
1
10
-20.0
20
-28.0
10
-5.0
20
-28.0
10
-5.0
20
-25.0
10
-20.0
20
-25.0
0
LWPOLYLINE
8
INTAKE_SLOT
90
4
70
1
10
5.0
20
-28.0
10
20.0
20
-28.0
10
20.0
20
-25.0
10
5.0
20
-25.0
0
CIRCLE
8
POWER_MOUNT
10
-35.0
20
20.0
40
1.6
0
CIRCLE
8
POWER_MOUNT
10
-25.0
20
20.0
40
1.6
0
CIRCLE
8
POWER_MOUNT
10
-35.0
20
10.0
40
1.6
0
CIRCLE
8
POWER_MOUNT
10
-25.0
20
10.0
40
1.6
0
TEXT
8
ANNOTATION
10
-30.0
20
15.0
40
1.5
72
1
11
-30.0
21
15.0
1
DFR1015
0
LWPOLYLINE
8
POWER_MOUNT
90
4
70
1
10
-20.0
20
15.0
10
-5.0
20
15.0
10
-5.0
20
25.0
10
-20.0
20
25.0
0
TEXT
8
ANNOTATION
10
-12.5
20
20.0
40
1.2
72
1
11
-12.5
21
20.0
1
WAGO
0
CIRCLE
8
SENSOR_MOUNT
10
-10.0
20
5.0
40
1.3
0
CIRCLE
8
SENSOR_MOUNT
10
-2.0
20
5.0
40
1.3
0
TEXT
8
ANNOTATION
10
-6.0
20
1.0
40
1.0
72
1
11
-6.0
21
1.0
1
SCD41
0
CIRCLE
8
SENSOR_MOUNT
10
8.0
20
5.0
40
1.3
0
CIRCLE
8
SENSOR_MOUNT
10
16.0
20
5.0
40
1.3
0
TEXT
8
ANNOTATION
10
12.0
20
1.0
40
1.0
72
1
11
12.0
21
1.0
1
SGP40
0
CIRCLE
8
SENSOR_MOUNT
10
26.0
20
5.0
40
1.3
0
CIRCLE
8
SENSOR_MOUNT
10
34.0
20
5.0
40
1.3
0
TEXT
8
ANNOTATION
10
30.0
20
1.0
40
1.0
72
1
11
30.0
21
1.0
1
ENS160
0
CIRCLE
8
SENSOR_MOUNT
10
-10.0
20
-5.0
40
1.3
0
CIRCLE
8
SENSOR_MOUNT
10
-2.0
20
-5.0
40
1.3
0
TEXT
8
ANNOTATION
10
-6.0
20
-9.0
40
1.0
72
1
11
-6.0
21
-9.0
1
BMP388
0
CIRCLE
8
SENSOR_MOUNT
10
8.0
20
-5.0
40
1.3
0
CIRCLE
8
SENSOR_MOUNT
10
16.0
20
-5.0
40
1.3
0
TEXT
8
ANNOTATION
10
12.0
20
-9.0
40
1.0
72
1
11
12.0
21
-9.0
1
SHT40
0
CIRCLE
8
SENSOR_MOUNT
10
26.0
20
-5.0
40
1.3
0
CIRCLE
8
SENSOR_MOUNT
10
34.0
20
-5.0
40
1.3
0
TEXT
8
ANNOTATION
10
30.0
20
-9.0
40
1.0
72
1
11
30.0
21
-9.0
1
SEN0428
0
CIRCLE
8
SENSOR_MOUNT
10
-10.0
20
-15.0
40
1.3
0
CIRCLE
8
SENSOR_MOUNT
10
-2.0
20
-15.0
40
1.3
0
TEXT
8
ANNOTATION
10
-6.0
20
-19.0
40
1.0
72
1
11
-6.0
21
-19.0
1
SEN0395
0
CIRCLE
8
SENSOR_MOUNT
10
8.0
20
-15.0
40
1.3
0
CIRCLE
8
SENSOR_MOUNT
10
16.0
20
-15.0
40
1.3
0
TEXT
8
ANNOTATION
10
12.0
20
-19.0
40
1.0
72
1
11
12.0
21
-19.0
1
SEN0540
0
CIRCLE
8
INTAKE_SLOT
10
0.0
20
25.0
40
5.0
0
TEXT
8
ANNOTATION
10
0.0
20
21.0
40
1.0
72
1
11
0.0
21
21.0
1
CABLE
0
0
ENDSEC
0
EOF
